<?xml version="1.0" encoding="UTF-8" standalone="no"?>
<!-- Created with Inkscape (http://www.inkscape.org/) -->

<svg
   xmlns:dc="http://purl.org/dc/elements/1.1/"
   xmlns:cc="http://creativecommons.org/ns#"
   xmlns:rdf="http://www.w3.org/1999/02/22-rdf-syntax-ns#"
   xmlns:svg="http://www.w3.org/2000/svg"
   xmlns="http://www.w3.org/2000/svg"
   xmlns:xlink="http://www.w3.org/1999/xlink"
   xmlns:sodipodi="http://sodipodi.sourceforge.net/DTD/sodipodi-0.dtd"
   xmlns:inkscape="http://www.inkscape.org/namespaces/inkscape"
   width="750"
   height="928"
   viewBox="0 0 750.00001 928"
   id="svg5175"
   version="1.1"
   inkscape:version="0.91 r13725"
   sodipodi:docname="background.svg">
  <sodipodi:namedview
     id="base"
     pagecolor="#ffffff"
     bordercolor="#666666"
     borderopacity="1.0"
     inkscape:pageopacity="0.0"
     inkscape:pageshadow="2"
     inkscape:zoom="0.89547414"
     inkscape:cx="375"
     inkscape:cy="464"
     inkscape:document-units="px"
     inkscape:current-layer="layer1"
     showgrid="false"
     units="px"
     fit-margin-top="0"
     fit-margin-left="0"
     fit-margin-right="0"
     fit-margin-bottom="0"
     inkscape:window-width="1654"
     inkscape:window-height="1033"
     inkscape:window-x="4"
     inkscape:window-y="0"
     inkscape:window-maximized="0" />
  <metadata
     id="metadata5180">
    <rdf:RDF>
      <cc:Work
         rdf:about="">
        <dc:format>image/svg+xml</dc:format>
        <dc:type
           rdf:resource="http://purl.org/dc/dcmitype/StillImage" />
        <dc:title></dc:title>
      </cc:Work>
    </rdf:RDF>
  </metadata>
  <g
     inkscape:label="Layer 1"
     inkscape:groupmode="layer"
     id="layer1"
     transform="translate(0.49583956,-102.36128)">
    <path
       style="fill:#487838;fill-opacity:1;fill-rule:evenodd;stroke:none;stroke-width:1px;stroke-linecap:butt;stroke-linejoin:miter;stroke-opacity:1"
       d="M 749.69916,139.00477 749.46425,981.67532 0.81675796,981.35911 0.0044476,140.59312 c 0,0 152.6525524,-83.079481 357.3962724,-2.79173 80.79084,-30.71254 184.91708,-38.706537 261.13117,-1.20337 94.26567,-25.17094 131.16727,1.20337 131.16727,1.20337 l 0,0"
       id="hills-background"
       inkscape:connector-curvature="0"
       sodipodi:nodetypes="cccccccc"
       inkscape:label="hills-background" />
    <path
       style="fill:#a5d9ea;fill-opacity:1;fill-rule:evenodd;stroke:none;stroke-width:1px;stroke-linecap:butt;stroke-linejoin:miter;stroke-opacity:1"
       d="m 622.30745,135.57655 c 0,0 -4.56752,63.88124 -11.49848,95.02559 -14.88927,66.90509 -50.52411,128.18262 -64.20078,195.34607 -20.71106,101.70805 -7.51536,208.18215 -26.20041,310.28183 -15.3076,83.64451 -69.95146,245.32292 -69.95146,245.32292 0,0 -170.63865,108.84564 -328.32845,-0.21424 0,0 138.40564,-161.18503 190.70918,-252.90239 56.56139,-99.18376 74.93232,-216.93715 130.3649,-316.75618 36.96473,-66.56345 96.23812,-118.96763 133.35248,-185.44777 16.10368,-28.84529 38.13145,-91.47898 38.13145,-91.47898 l 3.83114,1.80405 z"
       id="stream"
       inkscape:connector-curvature="0"
       inkscape:label="stream"
       sodipodi:nodetypes="caaaccaaaccc" />
  </g>
</svg>
