<?xml version="1.0" encoding="utf-8"?>
<!-- Generator: Adobe Illustrator 17.1.0, SVG Export Plug-In . SVG Version: 6.00 Build 0)  -->
<!DOCTYPE svg PUBLIC "-//W3C//DTD SVG 1.1//EN" "http://www.w3.org/Graphics/SVG/1.1/DTD/svg11.dtd">
<svg version="1.1" id="Layer_1" xmlns="http://www.w3.org/2000/svg" xmlns:xlink="http://www.w3.org/1999/xlink" x="0px" y="0px"
	 viewBox="0 0 612 792" enable-background="new 0 0 612 792" xml:space="preserve">
<rect x="-1" y="-1" fill="#A7D9EA" width="612" height="538.6"/>
<g>
	<defs>
		<rect id="SVGID_1_" x="-0.6" y="223.5" width="611.5" height="220.7"/>
	</defs>
	<clipPath id="SVGID_2_">
		<use xlink:href="#SVGID_1_"  overflow="visible"/>
	</clipPath>
	<path clip-path="url(#SVGID_2_)" fill="#749E3F" d="M200.3,350.5c1.2,0.5,2.6,0.9,4,1.2c0.7,0.3,9.1,1.3,21.3,2.7
		c30.3,3.4,84.2,8.8,104.3,10.1c4.5-0.1,9,0.3,13.2,1c0.3,0.1,0.7,0.1,1,0.2c4.4,0.9,8.6,2.2,12.2,3.7c0,0,0.1,0,0.1,0
		c8.4,4.1,7.9,9.3-14,9.4c-135.1-3.3-222.8,32.5-222.8,65.1v0.2H82.8v-0.7l40.8-32.2l29.1-22.9l47.6-37.6L200.3,350.5z"/>
	<path clip-path="url(#SVGID_2_)" fill="#29391D" d="M221.3,326.1c-20.7,7.3-17.5,22.8,4.3,27.8v0c-12.3-1.4-20.6-2.4-21.3-2.7
		c-1.4-0.4-2.7-0.8-4-1.2c-0.3-0.1-0.5-0.2-0.7-0.3c-17.4-6.8-18.7-22.4,0.4-30.1c11.8-3.8,16.3-4.6,28.9-4.6
		c5.8-0.1,11.5-0.3,17-0.4c0.6,0,1.2,0,1.8,0c90.4-1.8,139.4-0.3,161.8-5.9c1.4-0.3,2.6-0.7,3.8-1c5.2-1.6,8.5-3.3,10.1-5
		c2.4-2.5,1.4-5.2-2.2-7.7h8.7c19.8,25-4.9,42.4-179.8,28.8c-12.5,0-17.3-1.5-28.8,2.2L221.3,326.1z"/>
	<path clip-path="url(#SVGID_2_)" fill="#A6A8AC" d="M611.9,393h0.3v51.3H299.1h-21.9c12.7-20,36.2-23.5,84.3-35.7c0,0,0,0,0,0
		c0.7-0.2,1.3-0.3,2-0.5c11.5-3.7,22-9.1,30.3-15.1h59.4H611.9z"/>
	<polygon clip-path="url(#SVGID_2_)" fill="#9BA338" points="612.3,294.6 612.3,325.1 611.9,324.8 611.9,324.7 611.9,324.7 
		572.1,294.6 	"/>
	<path clip-path="url(#SVGID_2_)" fill="#4A7939" d="M453.9,339.7c10-3.6,18.3-9,24.4-15.3l0.9,0.3h64.3l68.5,47.2v21H453.2
		l-20.3-48.8C440.5,343.6,447.5,342,453.9,339.7"/>
	<polygon clip-path="url(#SVGID_2_)" fill="#749E3F" points="611.9,324.8 611.9,372 543.4,324.7 611.9,324.7 	"/>
	<path clip-path="url(#SVGID_2_)" fill="#9BA338" d="M572.1,294.6l39.7,30.1h-68.4h-64.3l-0.9-0.3c8.5-8.9,12.3-19.6,9.8-29.8H572.1
		z"/>
	<path clip-path="url(#SVGID_2_)" fill="#4A7939" d="M588.6,259l-2,1h-32.3c4.7-6.9,9.5-11,14.1-12.5l0-0.1
		C576.5,250.8,583.4,254.6,588.6,259"/>
	<path clip-path="url(#SVGID_2_)" fill="#4A7939" d="M586.6,260l-44.2,23.1c3.9-9.7,7.9-17.4,11.8-23.1H586.6z"/>
	<path clip-path="url(#SVGID_2_)" fill="#4A7939" d="M568.4,247.4l0,0.1c-4.6,1.5-9.4,5.6-14.1,12.5h-34.5
		c6.6-12.7,13.2-19.8,19.7-21.9C550.1,240.8,559.9,243.8,568.4,247.4"/>
	<path clip-path="url(#SVGID_2_)" fill="#4A7939" d="M519.8,260h34.5c-3.9,5.7-7.9,13.4-11.8,23.1L522,293.8h-34.1
		c-1.6-5.6-5.2-11.1-11.1-15.9c2.4-6.5,5-12.5,7.6-17.9H519.8z"/>
	<path clip-path="url(#SVGID_2_)" fill="#4A7939" d="M539.5,238.1c-6.5,2.1-13.1,9.2-19.7,21.9h-35.3c8-16.3,16.9-26.8,25.8-27.8
		C520.3,233.9,530.2,235.9,539.5,238.1"/>
	<path clip-path="url(#SVGID_2_)" fill="#749E3F" d="M466.1,226.7c14.5,1.3,29.6,3.1,44.2,5.5c-8.9,0.9-17.8,11.4-25.8,27.8h-47
		c1.6-3.6,3.2-6.9,4.8-9.9c6.1-1.1,12.8-1.6,19.8-1.1c0,0,0.1,0,0.1,0c11.3,1,19.7-15.3,5.2-15.3c-4.6,0-9.1-0.2-13.2-0.5
		C458.1,229.4,462.1,227.1,466.1,226.7"/>
	<path clip-path="url(#SVGID_2_)" fill="#A7D9EA" d="M453.9,339.7c-6.4,2.3-13.4,3.9-21,4.5c-56.7,4.8-176.4-17.2-195.1-12.1
		l-0.1-0.5c-5.1,0-10.3,7.8-3.7,12.9c3.7,3.7,49.8,11.9,111.7,11.9c33.7,0,50.7,12.7,52.1,19.8c0.5,10.7-9.6,23.1-34.3,31.7
		c-0.6,0.2-1.3,0.4-2,0.7c0,0,0,0,0,0c-48.1,12.2-71.5,15.7-84.3,35.7H158.9V444c9-25.2,73.5-56.7,186.7-53.9l0-0.2
		c33-0.3,27.8-13.1,10.6-20.4c0,0-0.1,0-0.1,0c-3.1-1.5-7.3-2.8-12.2-3.7c-0.3-0.1-0.6-0.1-1-0.2c-4.1-0.7-8.6-1.1-13.2-1
		c-20.1-1.2-74-6.7-104.3-10.1v0c-21.7-5-25-20.5-4.3-27.8l0-0.1c11.5-3.7,16.3-2.2,28.8-2.2c174.9,13.6,199.7-3.8,179.8-28.8h46.3
		v-0.9h11.9c2.5,10.2-1.4,20.9-9.8,29.8C472.2,330.7,463.9,336.1,453.9,339.7"/>
	<path clip-path="url(#SVGID_2_)" fill="#4A7939" d="M476.8,277.9c5.9,4.9,9.5,10.3,11.1,15.9c0.1,0.3,0.2,0.5,0.2,0.8l0,0l0.2,0.7
		l-58.4,0.2h-8.7H285.7h0c-34.8-7.6-56.7-18.5-56.7-30.7c0-1.6,0.4-3.3,1.2-4.9h57h37.4h35.9h36.6h6.1c-2.3,5.3,0.7,12,4.7,14.5
		c1.1,0.7,1.8,1.5,3.6,1l1,0h17h1.9l0.1,0c2-5.6,4.1-10.8,6.2-15.6h47C481.8,265.4,479.2,271.4,476.8,277.9"/>
	<path clip-path="url(#SVGID_2_)" fill="#A7D9EA" d="M467.5,233.6c14.4,0,6.1,16.2-5.2,15.3c0,0-0.1,0-0.1,0c-7-0.4-13.7,0-19.8,1.1
		c1.3-2.3,2.5-4.5,3.8-6.6c5.8-0.6,11.8-0.8,18.1-0.4c6.1,0.5,9.7-6.7,1.9-6c-5.3,0.2-10.4,0-15.1-0.4c1-1.3,2.1-2.4,3.2-3.5
		C458.4,233.5,462.9,233.6,467.5,233.6"/>
	<path clip-path="url(#SVGID_2_)" fill="#4A7939" d="M449.3,238.9c0.6-0.8,1.2-1.5,1.7-2.2c4.7,0.5,9.8,0.6,15.1,0.4
		c7.8-0.7,4.2,6.5-1.9,6c-6.3-0.4-12.3-0.2-18.1,0.4C447.2,241.8,448.3,240.3,449.3,238.9"/>
	<path clip-path="url(#SVGID_2_)" fill="#9BA338" d="M466.1,226.7c-4,0.4-8,2.7-11.8,6.5c-16.8-1.2-29.2-4.6-30.3-8.7
		c0.6-0.2,1.2-0.3,1.8-0.4h0C438,224.5,451.8,225.4,466.1,226.7"/>
	<path clip-path="url(#SVGID_2_)" fill="#9BA338" d="M432.9,344.2l20.3,48.8h-59.4c17.3-12.6,24.9-28,12.3-36.5
		c-9.5-6.6-18.1-5.2-57.7-7.9c-61.9,0-112.4-8.8-112.4-13c-1.4-1.7-0.6-2.8,1.8-3.5C256.5,327,376.3,349,432.9,344.2"/>
	<path clip-path="url(#SVGID_2_)" fill="#A7D9EA" d="M454.2,233.2c-1.1,1-2.1,2.2-3.2,3.5c-15.7-1.5-27.4-6.1-29.6-11.2
		c0.8-0.4,1.6-0.7,2.5-1C425,228.6,437.4,232,454.2,233.2"/>
	<path clip-path="url(#SVGID_2_)" fill="#9BA338" d="M451.1,236.6c-0.6,0.7-1.2,1.4-1.7,2.2h-41.4c4.4-6.6,9-11.2,13.6-13.4
		C423.7,230.6,435.4,235.2,451.1,236.6"/>
	<path clip-path="url(#SVGID_2_)" fill="#4A7939" d="M407.9,238.9h41.4c-1.1,1.4-2.1,3-3.2,4.6c-16.4,1.8-30.4,7.2-39.7,12.7l0,0
		c-1.5,1.1-2.8,2.4-3.5,3.9h-6.1c2.5-5.9,5.1-11.2,7.7-15.8C405.7,242.3,406.8,240.5,407.9,238.9"/>
	<path clip-path="url(#SVGID_2_)" fill="#A7D9EA" d="M446.2,243.5c-1.3,2-2.6,4.2-3.8,6.6c-9.8,1.8-18.1,5.1-23.8,8.9
		c-0.7,0.3-1.2,0.7-1.7,1.1H403c0.6-1.5,1.9-2.7,3.4-3.8l0,0C415.8,250.7,429.7,245.3,446.2,243.5"/>
	<path clip-path="url(#SVGID_2_)" fill="#4A7939" d="M442.3,250.1c-1.7,3.1-3.3,6.4-4.8,9.9h-20.7c0.5-0.4,1.1-0.7,1.7-1.1
		C424.2,255.2,432.5,251.8,442.3,250.1"/>
	<path clip-path="url(#SVGID_2_)" fill="#4A7939" d="M429.3,275.3c-7.6,0-19.8-9.7-12.5-15.3h20.7c-2.1,4.8-4.2,10-6.2,15.6l-0.1,0
		h-1.9V275.3z"/>
	<path clip-path="url(#SVGID_2_)" fill="#A7D9EA" d="M429.3,275.3v0.2h-17l-1,0c-1.8,0.5-2.4-0.3-3.6-1c-4-2.5-7-9.2-4.7-14.5h13.8
		C409.5,265.7,421.6,275.3,429.3,275.3"/>
	<path clip-path="url(#SVGID_2_)" fill="#4A7939" d="M423.9,224c0.6,0,1.3,0,1.9,0.1c-0.6,0.1-1.2,0.2-1.8,0.4
		C423.9,224.3,423.9,224.2,423.9,224"/>
	<path clip-path="url(#SVGID_2_)" fill="#A7D9EA" d="M423.9,224c0,0.2,0,0.3,0.1,0.5c-0.8,0.2-1.6,0.6-2.5,1c-0.2-0.5-0.3-1-0.4-1.5
		C422,223.9,423,224,423.9,224"/>
	<path clip-path="url(#SVGID_2_)" fill="#A7D9EA" d="M423.9,223.9C423.9,223.9,423.9,224,423.9,223.9c-0.9,0-1.8,0-2.7,0
		c0-0.1,0-0.1,0-0.2L423.9,223.9z"/>
	<path clip-path="url(#SVGID_2_)" fill="#4A7939" d="M421.1,295.6c3.6,2.5,4.7,5.1,2.2,7.7c-1.7,1.7-5,3.4-10.1,5
		c-1.2,0.4-2.4,0.7-3.8,1c-22.4,5.6-71.4,4-161.8,5.9c-0.6,0-1.2,0-1.8,0l24.6-19.4v-0.2h15.2h0H421.1z"/>
	<path clip-path="url(#SVGID_2_)" fill="#4A7939" d="M370.8,239.4c5.9-9.1,12.1-14.8,18.3-15.8c3.8-0.1,7.6-0.1,11.4-0.1
		c6,0,12.9,0.1,20.5,0.4c0,0.5,0.1,1,0.4,1.5c-4.6,2.2-9.2,6.9-13.6,13.4c-1.1,1.7-2.2,3.5-3.3,5.4l-0.3-0.2h-36l-0.2-0.1
		C369,242.3,369.9,240.8,370.8,239.4"/>
	<path clip-path="url(#SVGID_2_)" fill="#29391D" d="M397.7,376.2c-1.4-7-18.4-19.8-52.1-19.8c-61.9,0-107.9-8.2-111.7-11.9
		c-6.6-5.1-1.3-12.9,3.7-12.9l0.1,0.5c-2.4,0.7-3.2,1.8-1.8,3.5c0,4.3,50.5,13,112.4,13c39.5,2.7,48.2,1.3,57.7,7.9
		c12.6,8.5,5,23.9-12.3,36.5c-8.3,6-18.8,11.4-30.3,15.1l0-0.2C388.1,399.4,398.2,386.9,397.7,376.2"/>
	<path clip-path="url(#SVGID_2_)" fill="#749E3F" d="M404.3,244.1l0.3,0.2c-2.6,4.6-5.2,9.9-7.7,15.8h-36.6c2.5-6,5.1-11.4,7.7-16.1
		l0.2,0.1H404.3z"/>
	<path clip-path="url(#SVGID_2_)" fill="#749E3F" d="M389.2,223.6c-6.2,1-12.4,6.6-18.3,15.8h-35.5c1-1.5,2-2.9,3.1-4.1
		c4.6-5.7,9.4-9.3,14.2-10.1C364.3,224.3,376.5,223.8,389.2,223.6"/>
	<path clip-path="url(#SVGID_2_)" fill="#4A7939" d="M335.3,239.4h35.5c-0.9,1.4-1.8,3-2.7,4.5c-2.7,4.7-5.2,10.1-7.7,16.1h-35.9
		C328,251.9,331.6,244.9,335.3,239.4"/>
	<path clip-path="url(#SVGID_2_)" fill="#A7D9EA" d="M363.4,407.9l0,0.2c-0.7,0.2-1.3,0.3-2,0.5
		C362.1,408.3,362.8,408.1,363.4,407.9"/>
	<path clip-path="url(#SVGID_2_)" fill="#29391D" d="M342.2,378.9c21.9-0.1,22.4-5.3,14-9.4c17.1,7.3,22.3,20.2-10.6,20.4l0,0.2
		c-113.2-2.8-177.7,28.7-186.7,53.9v0.2h-39.4V444C119.5,411.4,207.1,375.6,342.2,378.9"/>
	<path clip-path="url(#SVGID_2_)" fill="#4A7939" d="M356.1,369.4c-3.6-1.5-7.7-2.8-12.2-3.7C348.8,366.6,353,368,356.1,369.4"/>
	<path clip-path="url(#SVGID_2_)" fill="#9BA338" d="M352.6,225.2c-4.8,0.8-9.6,4.3-14.2,10.1h-35.1l-0.2-0.2c3-2.9,6.2-4.8,9.3-5.6
		C324.8,227.6,338.3,226.2,352.6,225.2"/>
	<path clip-path="url(#SVGID_2_)" fill="#4A7939" d="M303.3,235.2h35.1c-1,1.3-2,2.7-3.1,4.1c-3.8,5.5-7.4,12.5-10.8,20.6h-37.4
		c5-11.1,10.4-19.7,16-25L303.3,235.2z"/>
	<path clip-path="url(#SVGID_2_)" fill="#4A7939" d="M312.4,229.4c-3.1,0.8-6.2,2.7-9.3,5.6c-5.6,5.3-11,13.9-16,25h-57
		C236.5,247,267.9,235.8,312.4,229.4"/>
	<path clip-path="url(#SVGID_2_)" fill="#749E3F" d="M156.5,316.2l62.2-20.3v-0.3h51.7v0.2l-24.6,19.4c-5.5,0.1-11.2,0.2-17,0.4
		c-12.6,0-17.1,0.7-28.9,4.6c-19.1,7.7-17.8,23.2-0.4,30.1H52.4L156.5,316.2z"/>
	<polygon clip-path="url(#SVGID_2_)" fill="#9BA338" points="218.7,295.6 218.7,295.9 156.5,316.2 2.1,316.2 117,295.8 117,295.6 	
		"/>
	<path clip-path="url(#SVGID_2_)" fill="#9BA338" d="M200.3,350.5l-0.1,0.4l-47.6,37.6l-29.1,22.9l-40.8,32.2v0.7H-0.6v-76.7
		l53-17.3h147.1C199.8,350.3,200,350.4,200.3,350.5"/>
	<polygon clip-path="url(#SVGID_2_)" fill="#4A7939" points="156.5,316.2 52.4,350.2 -0.6,350.2 -0.6,316.6 2.1,316.2 	"/>
	<polygon clip-path="url(#SVGID_2_)" fill="#749E3F" points="117,295.6 117,295.8 2.1,316.2 -0.6,316.2 -0.6,295.6 	"/>
	<polygon clip-path="url(#SVGID_2_)" fill="#749E3F" points="52.4,350.2 -0.6,367.5 -0.6,350.2 	"/>
	<polygon clip-path="url(#SVGID_2_)" fill="#4A7939" points="2.1,316.2 -0.6,316.6 -0.6,316.2 	"/>
</g>
<rect x="-0.6" y="223.5" fill="none" width="610.5" height="220.7"/>
<path fill="none" stroke="#FFFFFF" stroke-width="0.5" stroke-miterlimit="10" d="M425.7,224.1c12.2,0.5,26,1.3,40.3,2.6
	c14.5,1.3,29.6,3.1,44.1,5.5c10.1,1.7,20,3.6,29.2,5.9c10.6,2.6,20.5,5.7,29,9.3c8.1,3.4,15,7.2,20.1,11.6"/>
<path fill="none" stroke="#FFFFFF" stroke-width="0.5" stroke-miterlimit="10" d="M285.6,295.6c-34.8-7.6-56.7-18.5-56.7-30.7
	c0-1.6,0.4-3.3,1.2-4.9c6.3-13,37.7-24.2,82.2-30.6c12.4-1.8,25.9-3.2,40.2-4.2c11.7-0.8,24-1.4,36.6-1.6c3.8-0.1,7.6-0.1,11.4-0.1
	c6,0,12.9,0.1,20.5,0.4c0.9,0,1.8,0.1,2.8,0.1c0.6,0,1.3,0,1.9,0.1"/>
<path fill="none" stroke="#FFFFFF" stroke-width="0.47" stroke-miterlimit="10" d="M475.2,281.8c0.5-1.3,1-2.6,1.4-3.9
	c2.4-6.5,5-12.5,7.6-17.9c8-16.3,16.9-26.8,25.8-27.8"/>
<path fill="none" stroke="#FFFFFF" stroke-width="0.47" stroke-miterlimit="10" d="M454.1,233.2c3.9-3.8,7.9-6.1,11.8-6.5"/>
<path fill="none" stroke="#FFFFFF" stroke-width="0.47" stroke-miterlimit="10" d="M446,243.5c1-1.7,2.1-3.2,3.2-4.6
	c0.6-0.8,1.2-1.5,1.7-2.2"/>
<path fill="none" stroke="#FFFFFF" stroke-width="0.47" stroke-miterlimit="10" d="M431,275.8c0-0.1,0.1-0.2,0.1-0.3
	c2-5.6,4-10.8,6.2-15.6c1.6-3.6,3.2-6.9,4.8-9.9"/>
<path fill="none" stroke="#FFFFFF" stroke-width="0.47" stroke-miterlimit="10" d="M509.3,284.5c3.4-9.7,6.8-17.9,10.3-24.5
	c6.6-12.7,13.2-19.8,19.7-21.9"/>
<path fill="none" stroke="#FFFFFF" stroke-width="0.47" stroke-miterlimit="10" d="M538.2,293.8c1.3-3.8,2.7-7.4,4-10.7
	c3.9-9.7,7.9-17.4,11.8-23.1c4.7-6.9,9.5-11,14.1-12.5"/>
<line fill="none" stroke="#FFFFFF" stroke-width="0.5" stroke-miterlimit="10" x1="425.7" y1="224.1" x2="425.7" y2="224.1"/>
<path fill="none" stroke="#FFFFFF" stroke-width="0.47" stroke-miterlimit="10" d="M423.8,224.5c0.6-0.2,1.2-0.3,1.8-0.4"/>
<path fill="none" stroke="#FFFFFF" stroke-width="0.47" stroke-miterlimit="10" d="M391.6,273.5c1.7-4.8,3.4-9.3,5.2-13.5
	c2.5-5.9,5-11.2,7.7-15.8c1.1-1.9,2.2-3.7,3.3-5.4c4.4-6.6,9-11.2,13.6-13.4"/>
<path fill="none" stroke="#FFFFFF" stroke-width="0.47" stroke-miterlimit="10" d="M355.6,272.3c1.5-4.3,3.1-8.4,4.7-12.3
	c2.5-6,5.1-11.4,7.7-16.1c0.9-1.6,1.8-3.1,2.7-4.5c5.9-9.1,12.1-14.8,18.3-15.8c0.2,0,0.4-0.1,0.7-0.1"/>
<path fill="none" stroke="#FFFFFF" stroke-width="0.47" stroke-miterlimit="10" d="M319.1,273.8c1.7-4.9,3.5-9.5,5.3-13.8
	c3.5-8.1,7.1-15.1,10.8-20.6c1-1.5,2-2.9,3.1-4.1c4.6-5.7,9.4-9.3,14.2-10.1c0.2,0,0.5-0.1,0.7-0.1"/>
<path fill="none" stroke="#FFFFFF" stroke-width="0.47" stroke-miterlimit="10" d="M279.9,277.8c2.3-6.5,4.6-12.4,7.1-17.8
	c5-11.1,10.4-19.7,16-25c3-2.9,6.2-4.8,9.3-5.6c0.6-0.1,1.2-0.2,1.8-0.3"/>
<path fill="none" stroke="#FFFFFF" stroke-width="0.47" stroke-miterlimit="10" d="M406.3,256.2c-1.5,1.1-2.8,2.4-3.5,3.8
	c-2.3,5.3,0.7,12,4.7,14.5"/>
<path fill="none" stroke="#FFFFFF" stroke-width="0.47" stroke-miterlimit="10" d="M418.4,258.9c-0.7,0.3-1.2,0.7-1.7,1.1
	c-7.3,5.7,4.9,15.3,12.5,15.3c0.1,0,0.3,0,0.4,0"/>
<path fill="none" stroke="#FFFFFF" stroke-width="0.47" stroke-miterlimit="10" d="M406.3,256.2c9.3-5.5,23.3-10.9,39.7-12.7
	c5.8-0.6,11.8-0.8,18.1-0.4"/>
<path fill="none" stroke="#FFFFFF" stroke-width="0.47" stroke-miterlimit="10" d="M418.4,258.9c5.7-3.8,14-7.1,23.8-8.9
	c6.1-1.1,12.8-1.6,19.8-1.1"/>
<path fill="none" stroke="#FFFFFF" stroke-width="0.47" stroke-miterlimit="10" d="M466.1,237.1c7.8-0.7,4.2,6.5-1.9,6"/>
<path fill="none" stroke="#FFFFFF" stroke-width="0.47" stroke-miterlimit="10" d="M467.3,233.6c14.4,0,6.1,16.2-5.2,15.3
	c0,0-0.1,0-0.1,0"/>
<path fill="none" stroke="#FFFFFF" stroke-width="0.47" stroke-miterlimit="10" d="M423.7,223.9C423.7,223.9,423.7,224,423.7,223.9
	c0,0.3,0,0.4,0.1,0.6c1.1,4.1,13.4,7.5,30.3,8.7c4.2,0.3,8.6,0.5,13.2,0.5"/>
<path fill="none" stroke="#FFFFFF" stroke-width="0.47" stroke-miterlimit="10" d="M421,223.7c0,0.1,0,0.1,0,0.2
	c0,0.5,0.1,1,0.4,1.5c2.2,5.1,13.9,9.7,29.6,11.2c4.7,0.5,9.8,0.6,15.1,0.4"/>
<line fill="none" stroke="#FFFFFF" stroke-width="0.47" stroke-miterlimit="10" x1="421" y1="223.7" x2="423.7" y2="223.9"/>
<polyline fill="none" stroke="#FFFFFF" stroke-width="0.47" stroke-miterlimit="10" points="412.1,275.5 429.1,275.5 431,275.5 "/>
<path fill="none" stroke="#FFFFFF" stroke-width="0.941" stroke-miterlimit="10" d="M119.4,444c0-32.6,87.7-68.5,222.7-65.1"/>
<path fill="none" stroke="#FFFFFF" stroke-width="0.941" stroke-miterlimit="10" d="M158.8,444c9-25.2,73.4-56.7,186.6-53.9"/>
<path fill="none" stroke="#FFFFFF" stroke-width="0.941" stroke-miterlimit="10" d="M474.6,276.3c0.7,0.5,1.4,1,2,1.6
	c5.9,4.9,9.5,10.3,11.1,15.9c0.1,0.3,0.2,0.5,0.2,0.8c2.5,10.2-1.4,20.9-9.8,29.8c-6,6.3-14.4,11.7-24.4,15.3
	c-6.4,2.3-13.4,3.9-21,4.5"/>
<path fill="none" stroke="#FFFFFF" stroke-width="0.941" stroke-miterlimit="10" d="M247.6,315.2c-0.6,0-1.2,0-1.8,0
	c-5.5,0.1-11.2,0.2-17,0.4"/>
<path fill="none" stroke="#FFFFFF" stroke-width="0.941" stroke-miterlimit="10" d="M421,295.6c3.6,2.5,4.7,5.1,2.2,7.7"/>
<path fill="none" stroke="#FFFFFF" stroke-width="0.941" stroke-miterlimit="10" d="M429.7,295.6c19.8,25-4.9,42.4-179.8,28.8"/>
<path fill="none" stroke="#FFFFFF" stroke-width="0.941" stroke-miterlimit="10" d="M235.9,335.6c-1.4-1.7-0.6-2.8,1.8-3.5
	c18.7-5.1,138.4,17,195.1,12.1"/>
<path fill="none" stroke="#FFFFFF" stroke-width="0.941" stroke-miterlimit="10" d="M204.1,351.7c-1.4-0.4-2.7-0.8-4-1.2
	c-0.2-0.1-0.5-0.2-0.7-0.3c-17.4-6.8-18.7-22.4,0.4-30.1"/>
<path fill="none" stroke="#FFFFFF" stroke-width="0.941" stroke-miterlimit="10" d="M225.5,354.4c-21.7-5-25-20.5-4.3-27.8"/>
<path fill="none" stroke="#FFFFFF" stroke-width="0.941" stroke-miterlimit="10" d="M199.9,320.1c11.8-3.8,16.3-4.6,28.9-4.6"/>
<path fill="none" stroke="#FFFFFF" stroke-width="0.941" stroke-miterlimit="10" d="M220.8,326.6c0.1,0,0.3-0.1,0.4-0.1
	c11.5-3.7,16.3-2.2,28.8-2.2"/>
<path fill="none" stroke="#FFFFFF" stroke-width="0.941" stroke-miterlimit="10" d="M235.9,335.6c0,4.3,50.4,13,112.3,13"/>
<path fill="none" stroke="#FFFFFF" stroke-width="0.941" stroke-miterlimit="10" d="M233.8,344.6c3.7,3.7,49.7,11.9,111.7,11.9"/>
<path fill="none" stroke="#FFFFFF" stroke-width="0.941" stroke-miterlimit="10" d="M405.9,356.5c-9.5-6.6-18.1-5.2-57.7-7.9"/>
<path fill="none" stroke="#FFFFFF" stroke-width="0.941" stroke-miterlimit="10" d="M397.7,377.2c0-0.3,0-0.6-0.1-0.9
	c-1.4-7-18.4-19.8-52.1-19.8"/>
<path fill="none" stroke="#FFFFFF" stroke-width="0.941" stroke-miterlimit="10" d="M204.1,351.7c0.7,0.3,9,1.3,21.3,2.7
	c30.2,3.4,84.1,8.8,104.2,10.1"/>
<path fill="none" stroke="#FFFFFF" stroke-width="0.941" stroke-miterlimit="10" d="M342.9,365.5c-4.1-0.7-8.6-1.1-13.2-1"/>
<path fill="none" stroke="#FFFFFF" stroke-width="0.941" stroke-miterlimit="10" d="M356,369.4c-3.1-1.5-7.3-2.8-12.2-3.7"/>
<path fill="none" stroke="#FFFFFF" stroke-width="0.941" stroke-miterlimit="10" d="M342.1,378.9c21.9-0.1,22.4-5.3,14-9.4"/>
<path fill="none" stroke="#FFFFFF" stroke-width="0.941" stroke-miterlimit="10" d="M345.5,389.9c32.9-0.3,27.8-13.1,10.6-20.4
	c0,0-0.1,0-0.1,0c-3.6-1.5-7.7-2.8-12.2-3.7c-0.3-0.1-0.6-0.1-1-0.2c-4.2-0.8-8.7-1.2-13.2-1.1"/>
<path fill="none" stroke="#FFFFFF" stroke-width="0.941" stroke-miterlimit="10" d="M405.9,356.5c12.6,8.5,5,23.9-12.3,36.5
	c-8.3,6-18.7,11.4-30.3,15.1"/>
<path fill="none" stroke="#FFFFFF" stroke-width="0.941" stroke-miterlimit="10" d="M361.3,408.6c-2.3,0.8-4.7,1.5-7.2,2.1"/>
<path fill="none" stroke="#FFFFFF" stroke-width="0.941" stroke-miterlimit="10" d="M397.6,376.2c0.5,10.7-9.6,23.1-34.2,31.7
	c-0.6,0.2-1.3,0.4-2,0.7"/>
<line fill="none" stroke="#FFFFFF" stroke-width="0.5" stroke-miterlimit="10" x1="285.6" y1="295.6" x2="285.6" y2="295.6"/>
<line fill="none" stroke="#FFFFFF" stroke-width="0.941" stroke-miterlimit="10" x1="421" y1="295.6" x2="285.6" y2="295.6"/>
<path fill="none" stroke="#FFFFFF" stroke-width="0.941" stroke-miterlimit="10" d="M277.1,444.3c12.7-20,36.2-23.5,84.2-35.7
	c0,0,0,0,0,0c0.7-0.2,1.3-0.3,2-0.5"/>
<path fill="none" stroke="#FFFFFF" stroke-width="0.941" stroke-miterlimit="10" d="M233.8,344.6c-6.6-5.1-1.3-12.9,3.7-12.9"/>
<polyline fill="none" stroke="#FFFFFF" stroke-width="0.941" stroke-miterlimit="10" points="218.6,295.9 157.2,315.9 54.3,349.6 
	1.8,366.7 0.6,367.1 "/>
<line fill="none" stroke="#FFFFFF" stroke-width="0.941" stroke-miterlimit="10" x1="152.6" y1="388.4" x2="84.3" y2="443.1"/>
<line fill="none" stroke="#FFFFFF" stroke-width="0.941" stroke-miterlimit="10" x1="200.1" y1="350.9" x2="152.6" y2="388.4"/>
<polyline fill="none" stroke="#FFFFFF" stroke-width="0.941" stroke-miterlimit="10" points="-1.2,316.2 1.3,316.2 4,316.2 
	156.5,316.2 157.1,316.2 "/>
<polyline fill="none" stroke="#FFFFFF" stroke-width="0.941" stroke-miterlimit="10" points="-0.5,350.2 1.9,350.2 54.3,350.2 
	199.5,350.2 200.1,350.2 "/>
<polyline fill="none" stroke="#FFFFFF" stroke-width="0.941" stroke-miterlimit="10" points="117,295.8 3.1,316 0.4,316.5 
	-0.9,316.7 "/>
<polyline fill="none" stroke="#FFFFFF" stroke-width="0.941" stroke-miterlimit="10" points="393.6,393 450.2,393 601.3,393 
	601.7,393 610.6,393 "/>
<line fill="none" stroke="#FFFFFF" stroke-width="0.941" stroke-miterlimit="10" x1="432.8" y1="344.2" x2="453" y2="393"/>
<polyline fill="none" stroke="#FFFFFF" stroke-width="0.941" stroke-miterlimit="10" points="484.7,293.8 487.5,293.8 519.6,293.8 
	535,293.8 565.9,293.8 604.5,293.8 610.8,293.8 "/>
<line fill="none" stroke="#FFFFFF" stroke-width="0.47" stroke-miterlimit="10" x1="303.2" y1="235.2" x2="338.3" y2="235.2"/>
<polyline fill="none" stroke="#FFFFFF" stroke-width="0.47" stroke-miterlimit="10" points="335.2,239.4 370.7,239.4 370.8,239.4 
	"/>
<line fill="none" stroke="#FFFFFF" stroke-width="0.47" stroke-miterlimit="10" x1="368.2" y1="244.1" x2="404.2" y2="244.1"/>
<polyline fill="none" stroke="#FFFFFF" stroke-width="0.47" stroke-miterlimit="10" points="407.3,238.9 407.8,238.9 449.2,238.9 
	449.6,238.9 "/>
<line fill="none" stroke="#FFFFFF" stroke-width="0.941" stroke-miterlimit="10" x1="543.3" y1="324.7" x2="610.8" y2="371.4"/>
<polyline fill="none" stroke="#FFFFFF" stroke-width="0.941" stroke-miterlimit="10" points="479,324.7 542.9,324.7 611,324.7 
	611.1,324.7 "/>
<g>
	<defs>
		<rect id="SVGID_3_" x="-0.9" y="209.2" width="163.9" height="85.4"/>
	</defs>
	<clipPath id="SVGID_4_">
		<use xlink:href="#SVGID_3_"  overflow="visible"/>
	</clipPath>
	<g clip-path="url(#SVGID_4_)">
		<defs>
			<rect id="SVGID_5_" x="-0.9" y="209.2" width="163.9" height="85.4"/>
		</defs>
		<clipPath id="SVGID_6_">
			<use xlink:href="#SVGID_5_"  overflow="visible"/>
		</clipPath>
		<path clip-path="url(#SVGID_6_)" fill="#4A7939" d="M139.2,232.9c8.4,1.3,16.3,2.9,23.6,4.5l0.2,57.2H-0.9v-2.9V227
			c13.3-0.8,27.3-1.2,41.6-1.2C77.2,225.8,111.1,228.4,139.2,232.9"/>
		<path clip-path="url(#SVGID_6_)" fill="#749E3F" d="M139.1,221l0,11.9c-28-4.5-62-7.1-98.5-7.1c-14.3,0-28.3,0.4-41.6,1.2v-0.2
			v-17.3h1c6.2-0.2,12.6-0.2,19-0.2C65.8,209.2,108.2,213.7,139.1,221"/>
	</g>
</g>
<path fill="none" stroke="#FFFFFF" stroke-width="0.5" stroke-miterlimit="10" d="M0,209.5c6.2-0.2,12.6-0.2,19-0.2
	c46.8,0,89.2,4.5,120.1,11.8"/>
<path fill="none" stroke="#FFFFFF" stroke-width="0.5" stroke-miterlimit="10" d="M-1.2,227c0.1,0,0.2,0,0.3,0
	c13.3-0.8,27.3-1.2,41.6-1.2c36.6,0,70.5,2.6,98.5,7.1c8.4,1.3,16.3,2.9,23.6,4.5"/>
<line fill="none" stroke="#FFFFFF" stroke-width="0.47" stroke-miterlimit="10" x1="-0.9" y1="295.4" x2="-0.9" y2="307.1"/>
<polyline fill="none" stroke="#FFFFFF" stroke-width="0.47" stroke-miterlimit="10" points="-0.9,291.7 -0.9,294.6 -0.9,295.4 "/>
<polyline fill="none" stroke="#FFFFFF" stroke-width="0.47" stroke-miterlimit="10" points="-0.9,226.8 -0.9,227 -0.9,291.7 "/>
<polyline fill="none" stroke="#FFFFFF" stroke-width="0.47" stroke-miterlimit="10" points="-0.9,209.4 -0.9,209.5 -0.9,226.8 "/>
<path fill="#9BA338" d="M231.5,247.2c0,14.2-49.3,25.7-110.2,25.7S11.1,261.4,11.1,247.2c0-14.2,49.3-25.7,110.2-25.7
	S231.5,233.1,231.5,247.2"/>
<ellipse fill="none" stroke="#FFFFFF" stroke-width="0.5" stroke-miterlimit="10" cx="121.3" cy="247.2" rx="110.2" ry="25.7"/>
<path fill="#749E3F" d="M-0.6,241.8c34.8-2.7,77.3-4.2,121.7-4.2c123.8,0,224.1,12.1,224.1,27.1c0,14.9-100.3,27.1-224.1,27.1
	c-44.9,0-86.7-1.6-121.7-4.3"/>
<path fill="none" stroke="#FFFFFF" stroke-width="0.5" stroke-miterlimit="10" d="M-0.6,241.8c34.8-2.7,77.3-4.2,121.7-4.2
	c123.8,0,224.1,12.1,224.1,27.1c0,14.9-100.3,27.1-224.1,27.1c-44.9,0-86.7-1.6-121.7-4.3"/>
<path fill="#9BA338" d="M396.9,264.6c0,15.9-47.5,28.8-106,28.8c-58.5,0-106-12.9-106-28.8c0-15.9,47.5-28.8,106-28.8
	C349.4,235.8,396.9,248.7,396.9,264.6"/>
<ellipse fill="none" stroke="#FFFFFF" stroke-width="0.5" stroke-miterlimit="10" cx="290.9" cy="264.6" rx="106" ry="28.8"/>
<g>
	<defs>
		<rect id="SVGID_7_" x="-0.9" y="237.4" width="525.2" height="58.5"/>
	</defs>
	<clipPath id="SVGID_8_">
		<use xlink:href="#SVGID_7_"  overflow="visible"/>
	</clipPath>
	<g clip-path="url(#SVGID_8_)">
		<defs>
			<rect id="SVGID_9_" x="-0.9" y="237.4" width="525.2" height="58.5"/>
		</defs>
		<clipPath id="SVGID_10_">
			<use xlink:href="#SVGID_9_"  overflow="visible"/>
		</clipPath>
		<path clip-path="url(#SVGID_10_)" fill="#29391D" d="M524.3,295.9h-36.1c-0.1-1.4-0.3-2.2-0.6-3.4c8.5-4.3,16.2-11.9,23.2-19.6
			c4.1-4.4,7.9-8.9,11.6-12.9v-1.3h1.9V295.9z"/>
		<path clip-path="url(#SVGID_10_)" fill="#A7D9EA" d="M488.2,295.9h-58.5c0,0,0,0,0,0c-6.7-4.8-13.8-13.5-20.4-21.8l101.5-1.2
			c-7.1,7.7-14.7,15.3-23.2,19.6C487.9,293.7,488.1,294.5,488.2,295.9"/>
		<path clip-path="url(#SVGID_10_)" fill="#29391D" d="M188.2,258.6h3.4h0.1h12.1h3.4h0.1h11.3h3.4h0.1h11.6h3.4h0.1h11.6h3.4h0.1
			h11.7h3.4h0.1H279h0.4h3h0.1h12.9h3.4h0.1h11.3h3.4h0.1h82.8c3.9,4,8.2,9.6,12.8,15.4c6.6,8.3,13.6,17,20.4,21.8H-0.9v-37.2h87.5
			h85.2h3.4h0.1H188.2z"/>
		<path clip-path="url(#SVGID_10_)" fill="#29391D" d="M312.9,247c0.8-0.8,1-1,1.8-1.3c0.5-0.1,0.3-2.3,0.8-3.2
			c0.5-0.9,1.3-1.3,2.3-1.2c-1,1.8-0.3,4.2-1.4,4.9c-0.9,0.4-1.7,0.1-2.4,0.8c-0.8,0.8-1.6,1.2-1.7,2.5c-0.2,2.3-0.2,6,0.4,8.3
			c0.2,0.6,0.4,0.8,0.9,0.8h-3.4c1.3-0.3,1.1-2.6,1-3.8c-0.1-1.8,0.2-2.1-1.2-2.5c-0.9-0.2-3-0.4-3.6-1.2c-0.6-0.8-0.8-2.8-0.8-3.9
			c0,1.9,1.6,1.8,2.9,2.2c0.4,0.1,0.9,0.1,1.3,0.5c0.4,0.5,0,1.1,0.3,1.5c0.5,0.5,0.9,0.7,1.1,0.5c0.3-0.4,0.4-4.3,0.2-6.1
			c-0.1-0.8,0-2.5-0.5-3c-0.6-0.6-1.9,0.4-3.1,0c-1.5-0.8-3.3-3.5-2.6-5.5c0.9,1.2,1.6,1.4,2.4,1.7c2.3,1.5,1.7,2.9,2.3,2.8
			C313.5,241.5,311.5,248,312.9,247"/>
		<path clip-path="url(#SVGID_10_)" fill="#29391D" d="M301.6,246.2c-0.9,0.4-1.7,0.1-2.4,0.8c-0.8,0.8-1.6,1.2-1.7,2.5
			c-0.2,2.3-0.2,6,0.4,8.3c0.2,0.6,0.4,0.8,0.9,0.8h-3.4c1.3-0.3,1.1-2.6,1-3.8c-0.1-1.8,0.2-2.1-1.2-2.5c-0.9-0.2-3-0.4-3.6-1.2
			c-0.6-0.8-0.8-2.8-0.8-3.9c0,1.9,1.6,1.8,2.9,2.2c0.4,0.1,0.9,0.1,1.3,0.5c0.4,0.5,0,1.1,0.3,1.5c0.5,0.5,0.9,0.7,1.1,0.5
			c0.3-0.4,0.4-4.3,0.2-6.1c-0.1-0.8,0-2.5-0.5-3c-0.6-0.6-1.9,0.4-3.1,0c-1.5-0.8-3.3-3.5-2.6-5.5c0.9,1.2,1.6,1.4,2.4,1.7
			c2.3,1.5,1.7,2.9,2.3,2.8c3.6-0.3,1.5,6.2,3,5.1c0.8-0.8,1-1,1.8-1.3c0.5-0.1,0.3-2.3,0.8-3.2c0.5-0.9,1.3-1.3,2.3-1.2
			C302,243.1,302.7,245.5,301.6,246.2"/>
		<path clip-path="url(#SVGID_10_)" fill="#29391D" d="M276.7,242.8c-1.5-0.8-3.3-3.5-2.6-5.5c0.9,1.2,1.6,1.4,2.4,1.7
			c2.3,1.5,1.7,2.9,2.3,2.8c3.6-0.3,1.5,6.2,3,5.1c0.8-0.8,1-1,1.8-1.3c0.5-0.1,0.3-2.3,0.8-3.2c0.5-0.9,1.3-1.3,2.3-1.2
			c-1,1.8-0.3,4.2-1.4,4.9c-0.9,0.4-1.7,0-2.4,0.8c-0.8,0.8-1.6,1.2-1.7,2.5c-0.2,2.3-0.2,6,0.4,8.3c0.2,0.6,0.4,0.8,0.9,0.8h-3H279
			c1.3-0.3,1.1-2.6,1-3.8c-0.1-1.8,0.2-2.1-1.2-2.5c-0.9-0.2-3-0.4-3.6-1.2c-0.6-0.8-0.8-2.8-0.8-3.9c0,1.9,1.6,1.8,2.9,2.2
			c0.4,0.1,0.9,0.1,1.3,0.5c0.4,0.5,0,1.1,0.3,1.5c0.5,0.5,0.9,0.7,1.1,0.5c0.3-0.4,0.4-4.3,0.2-6.1c-0.1-0.8,0-2.5-0.5-3
			C279.2,242.2,277.9,243.2,276.7,242.8"/>
		<path clip-path="url(#SVGID_10_)" fill="#29391D" d="M261.4,242.8c-1.5-0.8-3.3-3.5-2.6-5.5c0.9,1.2,1.6,1.4,2.4,1.7
			c2.3,1.5,1.7,2.9,2.3,2.8c3.6-0.3,1.5,6.2,3,5.1c0.8-0.8,1-1,1.8-1.3c0.5-0.1,0.3-2.3,0.8-3.2c0.5-0.9,1.3-1.3,2.3-1.2
			c-1,1.8-0.3,4.2-1.4,4.9c-0.9,0.4-1.7,0-2.4,0.8c-0.8,0.8-1.6,1.2-1.7,2.5c-0.2,2.3-0.2,6,0.4,8.3c0.2,0.6,0.4,0.8,0.9,0.8h-3.4
			c1.3-0.3,1.1-2.6,1-3.8c-0.1-1.8,0.2-2.1-1.2-2.5c-0.9-0.2-3-0.4-3.6-1.2c-0.6-0.8-0.8-2.8-0.8-3.9c0,1.9,1.6,1.8,2.9,2.2
			c0.5,0.1,0.9,0.1,1.3,0.5c0.4,0.5,0,1.1,0.3,1.5c0.5,0.5,0.9,0.7,1.1,0.5c0.3-0.4,0.4-4.3,0.3-6.1c-0.1-0.8,0-2.5-0.5-3
			C263.9,242.2,262.7,243.2,261.4,242.8"/>
		<path clip-path="url(#SVGID_10_)" fill="#29391D" d="M249.4,242.8c-0.6-0.6-1.9,0.4-3.1,0c-1.5-0.8-3.3-3.5-2.6-5.5
			c0.9,1.2,1.6,1.4,2.4,1.7c2.3,1.5,1.7,2.9,2.3,2.8c3.6-0.3,1.5,6.2,3,5.1c0.8-0.8,1-1,1.8-1.3c0.5-0.1,0.3-2.3,0.8-3.2
			c0.5-0.9,1.3-1.3,2.3-1.2c-1,1.8-0.3,4.2-1.4,4.9c-0.9,0.4-1.7,0.1-2.4,0.8c-0.8,0.8-1.6,1.2-1.7,2.5c-0.2,2.3-0.2,6,0.4,8.3
			c0.2,0.6,0.4,0.8,0.9,0.8h-3.4c1.3-0.3,1.1-2.6,1-3.8c-0.1-1.8,0.2-2.1-1.2-2.5c-0.9-0.2-3-0.4-3.6-1.2c-0.6-0.8-0.8-2.8-0.8-3.9
			c0,1.9,1.6,1.8,2.9,2.2c0.4,0.1,0.9,0.1,1.3,0.5c0.4,0.5,0,1.1,0.3,1.5c0.5,0.5,0.9,0.7,1.1,0.5c0.3-0.4,0.4-4.3,0.2-6.1
			C249.9,245.1,250,243.4,249.4,242.8"/>
		<path clip-path="url(#SVGID_10_)" fill="#29391D" d="M241.2,241.2c-1,1.8-0.3,4.2-1.4,4.9c-0.9,0.4-1.7,0.1-2.4,0.8
			c-0.8,0.8-1.6,1.2-1.7,2.5c-0.2,2.3-0.2,6,0.4,8.3c0.2,0.6,0.4,0.8,0.9,0.8h-3.4c1.3-0.3,1.1-2.6,1-3.8c-0.1-1.8,0.2-2.1-1.2-2.5
			c-0.9-0.2-3-0.4-3.6-1.2c-0.6-0.8-0.8-2.8-0.8-3.9c0,1.9,1.6,1.8,2.9,2.2c0.4,0.1,0.9,0.1,1.3,0.5c0.4,0.5,0,1.1,0.3,1.5
			c0.5,0.5,0.9,0.7,1.1,0.5c0.3-0.4,0.4-4.3,0.2-6.1c-0.1-0.8,0-2.5-0.5-3c-0.6-0.6-1.9,0.4-3.1,0c-1.5-0.8-3.3-3.5-2.6-5.5
			c0.9,1.2,1.6,1.4,2.4,1.7c2.3,1.5,1.7,2.9,2.3,2.8c3.6-0.3,1.5,6.2,3,5.1c0.8-0.8,1-1,1.8-1.3c0.5-0.1,0.3-2.3,0.8-3.2
			C239.4,241.5,240.1,241.1,241.2,241.2"/>
		<path clip-path="url(#SVGID_10_)" fill="#29391D" d="M216.1,242.8c-1.5-0.8-3.3-3.5-2.6-5.5c0.9,1.2,1.6,1.4,2.4,1.7
			c2.3,1.5,1.7,2.9,2.3,2.8c3.6-0.3,1.5,6.2,3,5.1c0.8-0.8,1-1,1.8-1.3c0.5-0.1,0.3-2.3,0.8-3.2c0.5-0.9,1.3-1.3,2.3-1.2
			c-1,1.8-0.3,4.2-1.4,4.9c-0.9,0.4-1.7,0-2.4,0.8c-0.8,0.8-1.6,1.2-1.7,2.5c-0.2,2.3-0.2,6,0.4,8.3c0.2,0.6,0.4,0.8,0.9,0.8h-3.4
			c1.3-0.3,1.1-2.6,1-3.8c-0.1-1.8,0.2-2.1-1.2-2.5c-0.9-0.2-3-0.4-3.6-1.2c-0.6-0.8-0.8-2.8-0.8-3.9c0,1.9,1.6,1.8,2.9,2.2
			c0.4,0.1,0.9,0.1,1.3,0.5c0.4,0.5,0,1.1,0.3,1.5c0.5,0.5,0.9,0.7,1.1,0.5c0.3-0.4,0.4-4.3,0.2-6.1c-0.1-0.8,0-2.5-0.5-3
			C218.6,242.2,217.4,243.2,216.1,242.8"/>
		<path clip-path="url(#SVGID_10_)" fill="#29391D" d="M207.5,247c-0.8,0.8-1.6,1.2-1.7,2.5c-0.2,2.3-0.2,6,0.4,8.3
			c0.2,0.6,0.4,0.8,0.9,0.8h-3.4c1.3-0.3,1.1-2.6,1-3.8c-0.1-1.8,0.2-2.1-1.2-2.5c-0.9-0.2-3-0.4-3.6-1.2c-0.6-0.8-0.8-2.8-0.8-3.9
			c0,1.9,1.6,1.8,2.9,2.2c0.4,0.1,0.9,0.1,1.3,0.5c0.4,0.5,0,1.1,0.3,1.5c0.5,0.5,0.9,0.7,1.1,0.5c0.3-0.4,0.4-4.3,0.2-6.1
			c-0.1-0.8,0-2.5-0.5-3c-0.6-0.6-1.9,0.4-3.1,0c-1.5-0.8-3.3-3.5-2.6-5.5c0.9,1.2,1.6,1.4,2.4,1.7c2.3,1.5,1.7,2.9,2.3,2.8
			c3.6-0.3,1.5,6.2,3,5.1c0.8-0.8,1-1,1.8-1.3c0.5-0.1,0.3-2.3,0.8-3.2c0.5-0.9,1.3-1.3,2.3-1.2c-1,1.8-0.3,4.2-1.4,4.9
			C209,246.6,208.2,246.2,207.5,247"/>
		<path clip-path="url(#SVGID_10_)" fill="#29391D" d="M187.9,252.4c-0.9-0.2-3-0.4-3.6-1.2c-0.6-0.8-0.8-2.8-0.8-3.9
			c0,1.9,1.6,1.8,2.9,2.2c0.4,0.1,0.9,0.1,1.3,0.5c0.4,0.5,0,1.1,0.3,1.5c0.5,0.5,0.9,0.7,1.1,0.5c0.3-0.4,0.4-4.3,0.2-6.1
			c-0.1-0.8,0-2.5-0.5-3c-0.6-0.6-1.9,0.4-3.1,0c-1.5-0.8-3.3-3.5-2.6-5.5c0.9,1.2,1.6,1.4,2.4,1.7c2.3,1.5,1.7,2.9,2.3,2.8
			c3.6-0.3,1.5,6.2,3,5.1c0.8-0.8,1-1,1.8-1.3c0.5-0.1,0.3-2.3,0.8-3.2c0.5-0.9,1.3-1.3,2.3-1.2c-1,1.8-0.3,4.2-1.4,4.9
			c-0.9,0.4-1.7,0.1-2.4,0.8c-0.8,0.8-1.6,1.2-1.7,2.5c-0.2,2.3-0.2,6,0.4,8.3c0.2,0.6,0.4,0.8,0.9,0.8h-3.4c1.3-0.3,1.1-2.6,1-3.8
			C189,253,189.4,252.7,187.9,252.4"/>
		<path clip-path="url(#SVGID_10_)" fill="#29391D" d="M173.9,249.5c-0.2,2.3-0.2,6,0.4,8.3c0.2,0.6,0.4,0.8,0.9,0.8h-3.4
			c1.3-0.3,1.1-2.6,1-3.8c-0.1-1.8,0.2-2.1-1.2-2.5c-0.9-0.2-3-0.4-3.6-1.2c-0.6-0.8-0.8-2.8-0.8-3.9c0,1.9,1.6,1.8,2.9,2.2
			c0.4,0.1,0.9,0.1,1.3,0.5c0.4,0.5,0,1.1,0.3,1.5c0.5,0.5,0.9,0.7,1.1,0.5c0.3-0.4,0.4-4.3,0.2-6.1c-0.1-0.8,0-2.5-0.5-3
			c-0.6-0.6-1.9,0.4-3.1,0c-1.5-0.8-3.3-3.5-2.6-5.5c0.9,1.2,1.6,1.4,2.4,1.7c2.3,1.5,1.7,2.9,2.3,2.8c3.6-0.3,1.5,6.2,3,5.1
			c0.8-0.8,1-1,1.8-1.3c0.5-0.1,0.3-2.3,0.8-3.2c0.5-0.9,1.3-1.3,2.3-1.2c-1,1.8-0.3,4.2-1.4,4.9c-0.9,0.4-1.7,0.1-2.4,0.8
			C174.8,247.8,174,248.2,173.9,249.5"/>
	</g>
</g>
<path fill="none" stroke="#FFFFFF" stroke-width="0.941" stroke-miterlimit="10" d="M396.4,258.6c3.9,4,8.2,9.6,12.8,15.4
	c6.6,8.3,13.6,17,20.4,21.8c0,0,0,0,0,0c0.1,0.1,0.1,0.1,0.2,0.2"/>
<path fill="none" stroke="#FFFFFF" stroke-width="0.941" stroke-miterlimit="10" d="M522.4,259.9c-3.7,4-7.6,8.4-11.6,12.8
	c-7.1,7.7-14.8,15.2-23.2,19.6c-0.1,0.1-0.2,0.1-0.3,0.1"/>
<path fill="none" stroke="#FFFFFF" stroke-width="0.941" stroke-miterlimit="10" d="M488.2,295.7c-0.1-1.4-0.3-2.2-0.6-3.4
	c0,0,0-0.1,0-0.2"/>
<line fill="none" stroke="#FFFFFF" stroke-miterlimit="10" x1="421.6" y1="295.9" x2="-0.7" y2="295.9"/>
<g>
	<defs>
		<rect id="SVGID_11_" x="423.7" y="240.1" width="97.9" height="54.5"/>
	</defs>
	<clipPath id="SVGID_12_">
		<use xlink:href="#SVGID_11_"  overflow="visible"/>
	</clipPath>
	<g clip-path="url(#SVGID_12_)">
		<defs>
			<rect id="SVGID_13_" x="423.7" y="240.1" width="97.9" height="54.5"/>
		</defs>
		<clipPath id="SVGID_14_">
			<use xlink:href="#SVGID_13_"  overflow="visible"/>
		</clipPath>
		<path clip-path="url(#SVGID_14_)" fill="#29391D" d="M473.6,275c-6.6-3.2-49.5-1-49.5-1l-0.4-0.2l1.1-2.8
			c28.4,0,84.6-22.2,94.5-30.8l2.3,54.5H521h-32.6l-0.3-0.3c-0.4-9.4-10.5-17.7-14.6-19.2L473.6,275z"/>
	</g>
</g>
<path fill="none" stroke="#FFFFFF" stroke-width="0.47" stroke-miterlimit="10" d="M488.1,294.3c-0.4-9.4-10.5-17.7-14.6-19.2
	c-0.1,0-0.2-0.1-0.2-0.1"/>
<path fill="none" stroke="#FFFFFF" stroke-width="0.47" stroke-miterlimit="10" d="M519.3,240.1c-9.9,8.6-66.1,30.8-94.5,30.8"/>
<polyline fill="none" stroke="#FFFFFF" stroke-width="0.47" stroke-miterlimit="10" points="423.6,274 423.7,273.8 424.8,270.9 "/>
<path fill="none" stroke="#FFFFFF" stroke-width="0.47" stroke-miterlimit="10" d="M474.4,275.5c-8.6-3.6-29.2-1.5-50.8-1.5"/>
<g>
	<defs>
		<rect id="SVGID_15_" x="-1" y="420" width="612" height="373.7"/>
	</defs>
	<clipPath id="SVGID_16_">
		<use xlink:href="#SVGID_15_"  overflow="visible"/>
	</clipPath>
	<g clip-path="url(#SVGID_16_)">
		<defs>
			<rect id="SVGID_17_" x="-1" y="420" width="612" height="373.7"/>
		</defs>
		<clipPath id="SVGID_18_">
			<use xlink:href="#SVGID_17_"  overflow="visible"/>
		</clipPath>
		<path clip-path="url(#SVGID_18_)" fill="#414142" d="M611,443.1v350.7H-1V443.3h121.3c11.4,14.4,19.3,25.3,29,33
			c12.1,9.5,27.2,14,55.6,14.1v0.1c27.6,0,40.5-5.8,51.8-18c6.7-7.3,12.8-16.9,21-29v-0.3H611z"/>
		<path clip-path="url(#SVGID_18_)" fill="#29391D" d="M316.6,420c-15.3,5-29,9-39.2,23h-10.3C277.1,432.6,293.9,426.6,316.6,420"/>
		<path clip-path="url(#SVGID_18_)" fill="#29391D" d="M277.4,443.1h0.3v0.3c-8.2,12.1-14.3,21.7-21,29c0-12.9,3.6-22.2,10.4-29.3
			H277.4z"/>
		<path clip-path="url(#SVGID_18_)" fill="#29391D" d="M-1,443.1h160.5c-4.8,11-1.5,21.6-9.6,32.6l-0.5,0.6
			c-9.8-7.7-17.6-18.6-29-33H-1V443.1z"/>
	</g>
</g>
<path fill="none" stroke="#FFFFFF" stroke-width="0.941" stroke-miterlimit="10" d="M159.7,442.6c-0.1,0.1-0.1,0.3-0.2,0.4
	c-4.8,11-1.5,21.6-9.6,32.6"/>
<path fill="none" stroke="#FFFFFF" stroke-width="0.941" stroke-miterlimit="10" d="M120.3,443.3c11.4,14.4,19.3,25.3,29,33
	c12.1,9.5,27.2,14,55.6,14.1h0.1"/>
<path fill="none" stroke="#FFFFFF" stroke-width="0.941" stroke-miterlimit="10" d="M277.7,443.4c-8.2,12.1-14.3,21.7-21,29
	c-11.2,12.3-24.1,18-51.7,18"/>
<path fill="none" stroke="#FFFFFF" stroke-width="0.941" stroke-miterlimit="10" d="M256.7,472.4c0-12.9,3.6-22.2,10.4-29.3
	c9.9-10.4,26.7-16.5,49.5-23"/>
<path fill="none" stroke="#FFFFFF" stroke-width="0.941" stroke-miterlimit="10" d="M277.4,443.1c10.2-14,23.9-18,39.2-23"/>
<line fill="none" stroke="#FFFFFF" stroke-width="0.941" stroke-miterlimit="10" x1="120.3" y1="443.3" x2="-1" y2="443.3"/>
<rect x="-1" y="-1" fill="none" width="612" height="792"/>
<rect x="-1" y="-1" fill="none" width="612" height="792"/>
<g>
	<path fill="#414142" d="M303.3,456.8c-0.3,0.2-0.6,0.3-1.1,0.3c-0.2,0-0.5,0-0.6-0.1c0-0.2-0.1-0.5-0.1-0.8c0.1,0,0.2,0,0.3-0.1
		l0.1,0.5c0,0,0,0,0,0.1c0.1,0.1,0.2,0.1,0.4,0.1c0.3,0,0.6-0.1,0.7-0.2c0.2-0.1,0.3-0.4,0.3-0.6c0-0.5-0.4-0.8-1.1-0.8
		c-0.2,0-0.5,0-0.6,0l0,0c0.1-0.5,0.1-1.1,0.2-1.6c0.2,0,0.7,0,0.9,0c0.3,0,0.6,0,0.9,0c0,0.1,0,0.2,0,0.3c-0.5,0-1,0-1.5,0
		c0,0.3-0.1,0.6-0.1,0.9c0.1,0,0.3,0,0.5,0c0.9,0,1.3,0.5,1.3,1C303.7,456.3,303.5,456.7,303.3,456.8z"/>
</g>
<rect x="-1" y="-1" fill="none" width="612" height="792"/>
<rect x="519.3" y="240.5" fill="#29391D" width="91.8" height="55.3"/>
<polyline fill="#84381C" points="163.8,216.6 165.6,211.5 173.3,209.2 181,211.5 182.9,216.6 "/>
<polyline fill="none" stroke="#FFFFFF" stroke-width="0.47" stroke-miterlimit="10" points="163.8,216.6 165.6,211.5 173.3,209.2 
	181,211.5 182.9,216.6 "/>
<rect x="163.8" y="216.6" fill="#84381C" width="19.2" height="11.1"/>
<rect x="163.8" y="216.6" fill="none" stroke="#FFFFFF" stroke-width="0.47" stroke-miterlimit="10" width="19.2" height="11.1"/>
<path fill="#808184" d="M161.3,213.5c0,1.4-1.1,2.5-2.5,2.5c-1.4,0-2.5-1.1-2.5-2.5c0-1.4,1.1-2.5,2.5-2.5
	C160.2,211,161.3,212.1,161.3,213.5"/>
<circle fill="none" stroke="#FFFFFF" stroke-width="0.47" stroke-miterlimit="10" cx="158.8" cy="213.5" r="2.5"/>
<rect x="156.3" y="213.8" fill="#808184" width="5" height="13.9"/>
<rect x="156.3" y="213.8" fill="none" stroke="#FFFFFF" stroke-width="0.47" stroke-miterlimit="10" width="5" height="13.9"/>
<polyline fill="#84381C" points="404.6,215.8 406.1,211.8 412.2,210 418.2,211.8 419.7,215.8 "/>
<polyline fill="none" stroke="#FFFFFF" stroke-width="0.47" stroke-miterlimit="10" points="404.6,215.8 406.1,211.8 412.2,210 
	418.2,211.8 419.7,215.8 "/>
<rect x="404.6" y="215.8" fill="#84381C" width="15.1" height="8.8"/>
<rect x="404.6" y="215.8" fill="none" stroke="#FFFFFF" stroke-width="0.47" stroke-miterlimit="10" width="15.1" height="8.8"/>
<path fill="#808184" d="M403.3,213.4c0,1.1-0.9,2-2,2c-1.1,0-2-0.9-2-2c0-1.1,0.9-2,2-2C402.4,211.4,403.3,212.3,403.3,213.4"/>
<circle fill="none" stroke="#FFFFFF" stroke-width="0.47" stroke-miterlimit="10" cx="401.3" cy="213.4" r="2"/>
<rect x="399.3" y="213.6" fill="#808184" width="3.9" height="11"/>
<rect x="399.3" y="213.6" fill="none" stroke="#FFFFFF" stroke-width="0.47" stroke-miterlimit="10" width="3.9" height="11"/>
<line fill="none" stroke="#FFFFFF" stroke-width="0.941" stroke-miterlimit="10" x1="367.9" y1="243.1" x2="367.9" y2="237.5"/>
<line fill="none" stroke="#FFFFFF" stroke-width="0.941" stroke-miterlimit="10" x1="374.3" y1="243.1" x2="374.3" y2="237.5"/>
<line fill="none" stroke="#FFFFFF" stroke-width="0.941" stroke-miterlimit="10" x1="380.6" y1="243.1" x2="380.6" y2="237.5"/>
<line fill="none" stroke="#FFFFFF" stroke-width="0.941" stroke-miterlimit="10" x1="387" y1="243.1" x2="387" y2="237.5"/>
<line fill="none" stroke="#FFFFFF" stroke-width="0.941" stroke-miterlimit="10" x1="394.1" y1="243.1" x2="394.1" y2="237.5"/>
<line fill="none" stroke="#FFFFFF" stroke-width="0.941" stroke-miterlimit="10" x1="399.8" y1="243.1" x2="399.8" y2="237.5"/>
<line fill="none" stroke="#FFFFFF" stroke-width="0.941" stroke-miterlimit="10" x1="405" y1="243.1" x2="405" y2="237.5"/>
<line fill="none" stroke="#FFFFFF" stroke-width="1.411" stroke-miterlimit="10" x1="367.9" y1="241.5" x2="405" y2="241.5"/>
<line fill="none" stroke="#FFFFFF" stroke-width="1.411" stroke-miterlimit="10" x1="405" y1="239.3" x2="367.9" y2="239.3"/>
<line fill="none" stroke="#FFFFFF" stroke-width="0.941" stroke-miterlimit="10" x1="370.3" y1="239" x2="370.3" y2="233.8"/>
<line fill="none" stroke="#FFFFFF" stroke-width="0.941" stroke-miterlimit="10" x1="372.6" y1="235.5" x2="372.6" y2="230.6"/>
<line fill="none" stroke="#FFFFFF" stroke-width="0.941" stroke-miterlimit="10" x1="375.2" y1="232.3" x2="375.2" y2="227.6"/>
<line fill="none" stroke="#FFFFFF" stroke-width="0.941" stroke-miterlimit="10" x1="377.7" y1="229.5" x2="377.7" y2="225.7"/>
<line fill="none" stroke="#FFFFFF" stroke-width="0.941" stroke-miterlimit="10" x1="379.9" y1="227.5" x2="379.9" y2="224"/>
<line fill="none" stroke="#FFFFFF" stroke-width="0.941" stroke-miterlimit="10" x1="382" y1="225.7" x2="382" y2="222.8"/>
<line fill="none" stroke="#FFFFFF" stroke-width="0.941" stroke-miterlimit="10" x1="383.7" y1="224.6" x2="383.7" y2="222.6"/>
<line fill="none" stroke="#FFFFFF" stroke-width="0.941" stroke-miterlimit="10" x1="385.3" y1="223.8" x2="385.3" y2="222.3"/>
<path fill="none" stroke="#FFFFFF" stroke-width="0.706" stroke-linecap="round" stroke-linejoin="round" d="M367.9,239
	c6.2-10,12.7-16.1,19.2-16.8"/>
<path fill="none" stroke="#FFFFFF" stroke-width="0.706" stroke-linecap="round" stroke-linejoin="round" d="M368,241.2
	c6.1-11,12.6-17.6,19.1-18.4"/>
<line fill="none" stroke="#FFFFFF" stroke-width="0.941" stroke-miterlimit="10" x1="407.4" y1="239.5" x2="407.4" y2="234.1"/>
<line fill="none" stroke="#FFFFFF" stroke-width="0.941" stroke-miterlimit="10" x1="409.8" y1="235.8" x2="409.8" y2="230.8"/>
<line fill="none" stroke="#FFFFFF" stroke-width="0.941" stroke-miterlimit="10" x1="412.4" y1="232.5" x2="412.4" y2="227.6"/>
<line fill="none" stroke="#FFFFFF" stroke-width="0.941" stroke-miterlimit="10" x1="415" y1="229.6" x2="415" y2="225.7"/>
<line fill="none" stroke="#FFFFFF" stroke-width="0.941" stroke-miterlimit="10" x1="417.1" y1="227.5" x2="417.1" y2="223.8"/>
<line fill="none" stroke="#FFFFFF" stroke-width="0.941" stroke-miterlimit="10" x1="419.4" y1="225.7" x2="419.4" y2="222.6"/>
<line fill="none" stroke="#FFFFFF" stroke-width="0.941" stroke-miterlimit="10" x1="421.1" y1="224.5" x2="421.1" y2="222.4"/>
<line fill="none" stroke="#FFFFFF" stroke-width="0.941" stroke-miterlimit="10" x1="422.6" y1="223.6" x2="422.6" y2="222.1"/>
<path fill="none" stroke="#FFFFFF" stroke-width="0.706" stroke-linecap="round" stroke-linejoin="round" d="M405,239.5
	c6.3-10.4,12.9-16.8,19.5-17.5"/>
<path fill="none" stroke="#FFFFFF" stroke-width="0.706" stroke-linecap="round" stroke-linejoin="round" d="M405.1,241.8
	c6.2-11.4,12.8-18.4,19.4-19.2"/>
<path fill="none" stroke="#FFFFFF" stroke-width="0.941" stroke-miterlimit="10" d="M149,475.7c34.7,4.5,78.6-16.5,107.8-3.3"/>
<g>
	<defs>
		<rect id="SVGID_19_" x="354.5" y="216.2" width="12" height="4.8"/>
	</defs>
	<clipPath id="SVGID_20_">
		<use xlink:href="#SVGID_19_"  overflow="visible"/>
	</clipPath>
	<g clip-path="url(#SVGID_20_)">
		<defs>
			<rect id="SVGID_21_" x="354.5" y="216.2" width="12" height="4.8"/>
		</defs>
		<clipPath id="SVGID_22_">
			<use xlink:href="#SVGID_21_"  overflow="visible"/>
		</clipPath>
		<path clip-path="url(#SVGID_22_)" fill="#749E3F" d="M354.6,217.5l-0.1,3.3l11.9,0.2l0.1-4.4c0,0,0,0,0,0c0-0.2-0.2-0.4-0.3-0.4
			l-2.3,0.2l0,0l-0.7,2.4l-1.9,0l0-2.2l-6.4,0.6c0,0,0,0-0.1,0C354.7,217.2,354.6,217.3,354.6,217.5"/>
	</g>
</g>
<line fill="none" stroke="#FFFFFF" stroke-width="0.142" stroke-miterlimit="10" x1="354.8" y1="217.2" x2="354.8" y2="217.2"/>
<line fill="none" stroke="#FFFFFF" stroke-width="0.142" stroke-miterlimit="10" x1="361.3" y1="216.6" x2="354.9" y2="217.2"/>
<line fill="none" stroke="#FFFFFF" stroke-width="0.142" stroke-miterlimit="10" x1="366.2" y1="216.2" x2="363.9" y2="216.4"/>
<line fill="none" stroke="#FFFFFF" stroke-width="0.142" stroke-miterlimit="10" x1="366.5" y1="216.5" x2="366.5" y2="216.4"/>
<polyline fill="none" stroke="#FFFFFF" stroke-width="0.142" stroke-miterlimit="10" points="354.6,217.4 354.6,217.5 354.5,220.8 
	366.4,221 366.5,216.5 "/>
<polyline fill="none" stroke="#FFFFFF" stroke-width="0.142" stroke-miterlimit="10" points="361.3,216.6 361.3,218.8 363.2,218.8 
	363.9,216.4 "/>
<path fill="none" stroke="#FFFFFF" stroke-width="0.142" stroke-miterlimit="10" d="M354.6,217.5
	C354.6,217.5,354.6,217.5,354.6,217.5c0-0.2,0.1-0.3,0.2-0.3c0,0,0,0,0.1,0"/>
<path fill="none" stroke="#FFFFFF" stroke-width="0.142" stroke-miterlimit="10" d="M366.5,216.5
	C366.5,216.5,366.5,216.5,366.5,216.5c0-0.2-0.2-0.4-0.3-0.4"/>
<path fill="#595A5C" d="M354.5,221.5c0,1.3,1,2.3,2.3,2.3c1.3,0,2.3-1,2.3-2.3c0-1.3-1-2.3-2.3-2.3
	C355.6,219.2,354.5,220.2,354.5,221.5"/>
<path fill="#D7DE27" d="M355.6,221.5c0,0.7,0.5,1.2,1.2,1.2c0.7,0,1.2-0.5,1.2-1.2c0-0.7-0.5-1.2-1.2-1.2
	C356.2,220.4,355.6,220.9,355.6,221.5"/>
<polygon fill="#595A5C" points="357.1,215.5 357.9,215.6 357.9,216.9 357.1,217 "/>
<path fill="#D7DE27" d="M355.8,221.6c0,0.6,0.5,1.1,1,1.1c0.6,0,1.1-0.5,1.1-1c0-0.6-0.5-1.1-1-1.1
	C356.3,220.5,355.8,221,355.8,221.6"/>
<path fill="#595A5C" d="M356.6,221.6c0,0.1,0.1,0.2,0.2,0.2c0.1,0,0.2-0.1,0.2-0.2c0-0.1-0.1-0.2-0.2-0.2
	C356.7,221.3,356.6,221.4,356.6,221.6"/>
<line fill="none" stroke="#595A5C" stroke-width="0.121" stroke-miterlimit="10" x1="356.8" y1="221.6" x2="356.8" y2="220.5"/>
<line fill="none" stroke="#595A5C" stroke-width="0.121" stroke-miterlimit="10" x1="356.8" y1="221.6" x2="357.9" y2="221.2"/>
<line fill="none" stroke="#595A5C" stroke-width="0.121" stroke-miterlimit="10" x1="356.8" y1="221.6" x2="357.4" y2="222.5"/>
<line fill="none" stroke="#595A5C" stroke-width="0.121" stroke-miterlimit="10" x1="356.8" y1="221.6" x2="356.2" y2="222.4"/>
<line fill="none" stroke="#595A5C" stroke-width="0.121" stroke-miterlimit="10" x1="356.8" y1="221.6" x2="355.8" y2="221.2"/>
<g>
	<defs>
		<rect id="SVGID_23_" x="361.3" y="213.7" width="2.3" height="5.1"/>
	</defs>
	<clipPath id="SVGID_24_">
		<use xlink:href="#SVGID_23_"  overflow="visible"/>
	</clipPath>
	<g clip-path="url(#SVGID_24_)">
		<defs>
			<rect id="SVGID_25_" x="361.3" y="213.7" width="2.3" height="5.1"/>
		</defs>
		<clipPath id="SVGID_26_">
			<use xlink:href="#SVGID_25_"  overflow="visible"/>
		</clipPath>
		<path clip-path="url(#SVGID_26_)" fill="#4E647D" d="M361.6,217.3c0,0-0.1,0.1-0.1,0.1l-0.2,1.1c0,0.1,0.1,0.2,0.2,0.3
			c0,0,0,0,0.1,0c0.1,0,0.2-0.1,0.2-0.2l0.1-0.8l-0.2,0c-0.1,0-0.3-0.2-0.2-0.3C361.6,217.4,361.6,217.4,361.6,217.3"/>
		<path clip-path="url(#SVGID_26_)" fill="#4E647D" d="M361.6,217.5c0,0.2,0.1,0.3,0.2,0.3l0.2,0l0.1-0.4c0-0.1-0.1-0.2-0.2-0.3
			c0,0,0,0-0.1,0c-0.1,0-0.1,0-0.2,0.1c0,0,0,0,0,0C361.6,217.4,361.6,217.4,361.6,217.5"/>
		<path clip-path="url(#SVGID_26_)" fill="#84381C" d="M361.8,216c0,0.1,0,0.2,0.1,0.2l0.6,0.2l0-0.4l-0.5-0.2
			C361.9,215.8,361.8,215.8,361.8,216C361.8,215.9,361.8,216,361.8,216"/>
		<path clip-path="url(#SVGID_26_)" fill="#84381C" d="M362.6,216l-0.2-0.1l0,0.4l0.2,0.1c-0.1,0-0.1-0.1-0.1-0.2L362.6,216z"/>
		<path clip-path="url(#SVGID_26_)" fill="#4E647D" d="M361.6,217.3c0,0,0.1-0.1,0.2-0.1c0,0,0,0,0.1,0c0.1,0,0.2,0.1,0.2,0.3
			l-0.1,0.4l0.9,0c0,0,0,0,0,0c-0.3,0-0.4-0.3-0.4-0.5l0-0.1l-0.7,0C361.7,217.2,361.7,217.2,361.6,217.3"/>
		<path clip-path="url(#SVGID_26_)" fill="#84381C" d="M362.7,216.5L362.7,216.5L362.7,216.5C362.7,216.4,362.7,216.5,362.7,216.5
			C362.7,216.5,362.7,216.5,362.7,216.5C362.7,216.5,362.7,216.5,362.7,216.5"/>
		<path clip-path="url(#SVGID_26_)" fill="#84381C" d="M362.7,216.5C362.7,216.5,362.7,216.5,362.7,216.5
			C362.7,216.5,362.7,216.5,362.7,216.5L362.7,216.5C362.7,216.5,362.7,216.5,362.7,216.5"/>
		<path clip-path="url(#SVGID_26_)" fill="#84381C" d="M362.8,216.5C362.8,216.5,362.8,216.5,362.8,216.5
			C362.8,216.5,362.8,216.5,362.8,216.5"/>
		<polyline clip-path="url(#SVGID_26_)" fill="#84381C" points="362.9,216.5 362.8,216.5 362.9,216.5 		"/>
		<polyline clip-path="url(#SVGID_26_)" fill="#84381C" points="362.9,216.5 362.9,216.5 362.9,216.5 		"/>
		<path clip-path="url(#SVGID_26_)" fill="#84381C" d="M363,216.4C362.9,216.4,362.9,216.4,363,216.4
			C362.9,216.4,362.9,216.4,363,216.4"/>
		<path clip-path="url(#SVGID_26_)" fill="#84381C" d="M363,216.3L363,216.3C363,216.3,363,216.3,363,216.3
			C363,216.3,363,216.3,363,216.3"/>
		<path clip-path="url(#SVGID_26_)" fill="#84381C" d="M363.3,215.5c0-0.1,0-0.2-0.1-0.2c0,0-0.1,0-0.1,0c-0.1,0-0.2,0-0.2,0.1
			l-0.2,0.6l0,0.1l-0.1,0.2c0,0.1,0,0.2,0.1,0.2l0.1,0v0l0,0c0,0,0,0,0,0c0,0,0,0,0,0c0,0,0,0,0.1,0c0,0,0,0,0,0c0,0,0,0,0,0
			c0,0,0,0,0,0c0,0,0,0,0,0c0,0,0.1,0,0.1-0.1c0,0,0,0,0,0l0,0l0,0l0,0L363.3,215.5z"/>
		<path clip-path="url(#SVGID_26_)" fill="#4E647D" d="M363.2,217.5c0-0.2-0.1-0.3-0.3-0.3l-0.4,0l0,0.1c0,0.3,0.1,0.5,0.4,0.5h0
			C363.1,217.8,363.2,217.7,363.2,217.5L363.2,217.5z"/>
		<path clip-path="url(#SVGID_26_)" fill="#84381C" d="M363.5,216c0-0.5-0.2-0.9-0.4-0.9c-0.2,0-0.4,0.4-0.4,0.8l0.2-0.6
			c0-0.1,0.1-0.1,0.2-0.1c0,0,0,0,0.1,0c0.1,0,0.2,0.1,0.1,0.2l-0.3,0.8l0,0c0,0,0,0,0,0c0,0,0,0,0,0l0,0c0,0,0,0,0,0
			c0,0,0,0.1-0.1,0.1c0,0,0,0,0,0c0,0,0,0,0,0c0,0,0,0,0,0s0,0,0,0c0,0,0,0-0.1,0c0,0,0,0,0,0c0,0,0,0,0,0c0.1,0.3,0.2,0.5,0.4,0.5
			C363.3,216.9,363.5,216.5,363.5,216"/>
		<path clip-path="url(#SVGID_26_)" fill="#C2B59B" d="M363.1,215c0.3,0,0.5-0.3,0.5-0.6c0-0.4-0.2-0.7-0.5-0.7
			c-0.3,0-0.5,0.3-0.6,0.6C362.6,214.7,362.8,215,363.1,215"/>
		<path clip-path="url(#SVGID_26_)" fill="#4E647D" d="M363.1,215.1c0.2,0,0.4,0.4,0.4,0.9c0,0.5-0.2,0.9-0.4,0.9
			c-0.2,0-0.3-0.2-0.4-0.5c0,0,0,0,0,0c0,0,0,0,0,0l-0.2-0.1l0,0.8l0.4,0c0.1,0,0.3,0.2,0.3,0.3v0c0,0.2-0.1,0.3-0.2,0.3
			c0,0,0,0,0.1,0c0.2,0,0.3-0.1,0.4-0.2c0.1-0.1,0.1-0.2,0.1-0.4l0.1-1.7v0C363.6,215.3,363.4,215.1,363.1,215.1L363.1,215.1
			c-0.3-0.1-0.5,0.2-0.5,0.5l-0.1,0l0,0.3l0.2,0.1l0-0.1C362.7,215.5,362.9,215.1,363.1,215.1"/>
		<path clip-path="url(#SVGID_26_)" fill="#84381C" d="M363.1,215.1c0.3,0,0.5,0.3,0.6,0.6l0-0.1C363.7,215.3,363.4,215,363.1,215.1
			c-0.3,0-0.6,0.2-0.6,0.5v0l0,0.1l0.1,0C362.6,215.3,362.8,215.1,363.1,215.1L363.1,215.1z"/>
	</g>
</g>
<path fill="none" stroke="#FFFFFF" stroke-width="6.100000e-02" stroke-miterlimit="10" d="M363,216.3l0.3-0.8c0-0.1,0-0.2-0.1-0.2
	c0,0,0,0-0.1,0c-0.1,0-0.2,0-0.2,0.1l-0.2,0.6l0,0.1l-0.1,0.2c0,0.1,0,0.2,0.1,0.2"/>
<line fill="none" stroke="#FFFFFF" stroke-width="6.100000e-02" stroke-miterlimit="10" x1="363" y1="216.4" x2="363" y2="216.3"/>
<path fill="none" stroke="#FFFFFF" stroke-width="6.100000e-02" stroke-miterlimit="10" d="M362.9,216.5
	C362.9,216.5,362.9,216.5,362.9,216.5C362.9,216.4,362.9,216.4,362.9,216.5"/>
<line fill="none" stroke="#FFFFFF" stroke-width="6.100000e-02" stroke-miterlimit="10" x1="362.8" y1="216.5" x2="362.9" y2="216.5"/>
<path fill="none" stroke="#FFFFFF" stroke-width="6.100000e-02" stroke-miterlimit="10" d="M362.8,216.5
	C362.8,216.5,362.8,216.5,362.8,216.5"/>
<path fill="none" stroke="#FFFFFF" stroke-width="6.100000e-02" stroke-miterlimit="10" d="M362.8,216.5
	C362.8,216.5,362.8,216.5,362.8,216.5C362.8,216.5,362.8,216.5,362.8,216.5C362.9,216.5,362.9,216.5,362.8,216.5
	C362.9,216.5,362.9,216.5,362.8,216.5c0.1,0,0.1-0.1,0.1-0.1c0,0,0,0,0,0l0,0c0,0,0,0,0,0c0,0,0,0,0,0l0,0c0,0,0,0,0,0"/>
<path fill="none" stroke="#FFFFFF" stroke-width="6.100000e-02" stroke-miterlimit="10" d="M362.6,216l-0.2-0.1l-0.5-0.2
	c-0.1,0-0.2,0-0.2,0.1c0,0,0,0,0,0.1c0,0.1,0,0.2,0.1,0.2l0.6,0.2l0.2,0.1"/>
<path fill="none" stroke="#FFFFFF" stroke-width="6.100000e-02" stroke-miterlimit="10" d="M362.7,216.5
	C362.7,216.5,362.7,216.5,362.7,216.5c0.1,0.3,0.2,0.5,0.4,0.5c0.2,0,0.4-0.4,0.4-0.9c0-0.5-0.2-0.9-0.4-0.9c-0.2,0-0.4,0.4-0.4,0.8
	v0"/>
<line fill="none" stroke="#FFFFFF" stroke-width="6.100000e-02" stroke-miterlimit="10" x1="362.7" y1="216.5" x2="362.7" y2="216.5"/>
<path fill="none" stroke="#FFFFFF" stroke-width="6.100000e-02" stroke-miterlimit="10" d="M362.6,215.6c0.1-0.3,0.2-0.6,0.5-0.6h0"
	/>
<polyline fill="none" stroke="#FFFFFF" stroke-width="6.100000e-02" stroke-miterlimit="10" points="362.6,215.6 362.5,215.6 
	362.5,215.6 "/>
<path fill="none" stroke="#FFFFFF" stroke-width="0.726" stroke-miterlimit="10" d="M368,218.1c-0.7-0.8-1.6-1.3-2.7-1.3
	c-2.1,0-3.7,1.6-3.8,3.7c0,0.2,0,0.4,0,0.5"/>
<path fill="#595A5C" d="M361.8,220.5c0,1.9,1.5,3.5,3.4,3.5c1.9,0,3.5-1.5,3.5-3.4c0-1.9-1.5-3.5-3.4-3.5
	C363.4,217.1,361.8,218.6,361.8,220.5"/>
<path fill="#D7DE27" d="M363.3,220.5c0,1,0.8,1.9,1.8,1.9c1,0,1.9-0.8,1.9-1.8c0-1-0.8-1.9-1.8-1.9
	C364.2,218.7,363.4,219.5,363.3,220.5"/>
<path fill="none" stroke="#749E3F" stroke-width="0.484" stroke-miterlimit="10" d="M368,218.1c-0.7-0.8-1.6-1.3-2.7-1.3
	c-2.1,0-3.7,1.6-3.8,3.7c0,0.2,0,0.4,0,0.5"/>
<path fill="#595A5C" d="M364.8,220.5c0,0.2,0.2,0.4,0.4,0.4c0.2,0,0.4-0.2,0.4-0.4c0-0.2-0.2-0.4-0.4-0.4
	C364.9,220.2,364.8,220.3,364.8,220.5"/>
<line fill="none" stroke="#595A5C" stroke-width="0.121" stroke-miterlimit="10" x1="365.2" y1="220.6" x2="365.2" y2="218.8"/>
<line fill="none" stroke="#595A5C" stroke-width="0.121" stroke-miterlimit="10" x1="365.2" y1="220.6" x2="366.8" y2="220"/>
<line fill="none" stroke="#595A5C" stroke-width="0.121" stroke-miterlimit="10" x1="365.2" y1="220.6" x2="366.2" y2="222"/>
<line fill="none" stroke="#595A5C" stroke-width="0.121" stroke-miterlimit="10" x1="365.2" y1="220.6" x2="364.1" y2="222"/>
<line fill="none" stroke="#595A5C" stroke-width="0.121" stroke-miterlimit="10" x1="365.2" y1="220.6" x2="363.5" y2="220"/>
<ellipse transform="matrix(-0.969 0.2471 -0.2471 -0.969 765.18 336.6792)" fill="none" stroke="#595A5C" stroke-width="0.242" stroke-miterlimit="10" cx="361.5" cy="216.3" rx="0.2" ry="1"/>
<line fill="none" stroke="#595A5C" stroke-width="0.242" stroke-miterlimit="10" x1="361.7" y1="216.8" x2="361.5" y2="216.4"/>
<line fill="none" stroke="#595A5C" stroke-width="0.242" stroke-miterlimit="10" x1="361.5" y1="216.4" x2="361.3" y2="215.5"/>
<line fill="none" stroke="#595A5C" stroke-width="0.242" stroke-miterlimit="10" x1="361.7" y1="216.4" x2="361.6" y2="216.4"/>
<rect x="-1" y="-1" fill="none" width="612" height="792"/>
<path fill="none" stroke="#FFFFFF" stroke-width="0.47" stroke-linecap="round" stroke-linejoin="round" d="M519.4,239.9
	c-3.5,23-18.7,45.3-31.3,54.4"/>
<rect x="-1" y="-1" fill="none" width="612" height="792"/>
<g>
</g>
<rect x="-1" y="-3" fill="none" width="612" height="792"/>
<rect x="-1" y="-1" fill="none" width="612" height="792"/>
<g>
</g>
<g>
</g>
<g>
</g>
<g>
</g>
<line fill="none" stroke="#FFFFFF" stroke-width="0.5" stroke-miterlimit="10" x1="475.3" y1="260" x2="437.5" y2="260"/>
<line fill="none" stroke="#FFFFFF" stroke-width="0.5" stroke-miterlimit="10" x1="519.3" y1="240.5" x2="612.1" y2="240.5"/>
<line fill="none" stroke="#FFFFFF" stroke-width="0.5" stroke-miterlimit="10" x1="488.4" y1="295.6" x2="611.1" y2="295.6"/>
<rect x="169.7" y="221.5" fill="#84381C" width="7.3" height="6.1"/>
<rect x="169.7" y="221.5" fill="none" stroke="#FFFFFF" stroke-width="0.263" stroke-miterlimit="10" width="7.3" height="6.1"/>
<line fill="none" stroke="#FFFFFF" stroke-width="0.263" stroke-miterlimit="10" x1="173.3" y1="221.5" x2="173.3" y2="227.7"/>
<line fill="none" stroke="#FFFFFF" stroke-width="0.525" stroke-miterlimit="10" x1="169.8" y1="227.7" x2="173.2" y2="221.5"/>
<line fill="none" stroke="#FFFFFF" stroke-width="0.525" stroke-miterlimit="10" x1="173.2" y1="227.6" x2="169.8" y2="221.5"/>
<line fill="none" stroke="#FFFFFF" stroke-width="0.525" stroke-miterlimit="10" x1="173.3" y1="227.6" x2="176.8" y2="221.5"/>
<line fill="none" stroke="#FFFFFF" stroke-width="0.525" stroke-miterlimit="10" x1="176.9" y1="227.7" x2="173.3" y2="221.5"/>
<rect x="408.5" y="218.5" fill="#84381C" width="7.3" height="6.1"/>
<rect x="408.5" y="218.5" fill="none" stroke="#FFFFFF" stroke-width="0.263" stroke-miterlimit="10" width="7.3" height="6.1"/>
<line fill="none" stroke="#FFFFFF" stroke-width="0.263" stroke-miterlimit="10" x1="412.1" y1="218.5" x2="412.1" y2="224.6"/>
<line fill="none" stroke="#FFFFFF" stroke-width="0.525" stroke-miterlimit="10" x1="408.7" y1="224.6" x2="412.1" y2="218.5"/>
<line fill="none" stroke="#FFFFFF" stroke-width="0.525" stroke-miterlimit="10" x1="412.1" y1="224.6" x2="408.7" y2="218.5"/>
<line fill="none" stroke="#FFFFFF" stroke-width="0.525" stroke-miterlimit="10" x1="412.1" y1="224.6" x2="415.7" y2="218.5"/>
<line fill="none" stroke="#FFFFFF" stroke-width="0.525" stroke-miterlimit="10" x1="415.7" y1="224.6" x2="412.1" y2="218.5"/>
<rect x="-1" y="-1" fill="none" width="612" height="792"/>
<rect x="-1" y="-1" fill="none" width="612" height="792"/>
<line fill="none" stroke="#FFFFFF" stroke-width="1.035" stroke-miterlimit="10" x1="277.3" y1="443.4" x2="612.1" y2="443.4"/>
<rect x="-1" y="-1" fill="none" width="612" height="792"/>
<rect x="-1" y="-1" fill="none" width="612" height="792"/>
<path fill="none" stroke="#FFFFFF" stroke-width="0.941" stroke-miterlimit="10" d="M247,315.2c57-1.5,164,1.8,176.2-11.9"/>
<g>
	<defs>
		<rect id="SVGID_27_" x="244" y="225.3" width="20.4" height="8"/>
	</defs>
	<clipPath id="SVGID_28_">
		<use xlink:href="#SVGID_27_"  overflow="visible"/>
	</clipPath>
	<g clip-path="url(#SVGID_28_)">
		<defs>
			<rect id="SVGID_29_" x="244" y="225.3" width="20.4" height="8"/>
		</defs>
		<clipPath id="SVGID_30_">
			<use xlink:href="#SVGID_29_"  overflow="visible"/>
		</clipPath>
		<path clip-path="url(#SVGID_30_)" fill="#749E3F" d="M244,225.9c0-0.3,0.2-0.6,0.5-0.6l3.8,0l1.5,3.9l3.1-0.3l-0.4-3.6l10.7,0.1
			l0,0l0.1,0l0,0c0.2,0,0.4,0.2,0.5,0.5l0.5,5.4l-19.7,2L244,225.9z"/>
	</g>
</g>
<line fill="none" stroke="#FFFFFF" stroke-width="0.235" stroke-miterlimit="10" x1="263.4" y1="225.4" x2="263.5" y2="225.4"/>
<line fill="none" stroke="#FFFFFF" stroke-width="0.235" stroke-miterlimit="10" x1="263.3" y1="225.4" x2="263.4" y2="225.4"/>
<line fill="none" stroke="#FFFFFF" stroke-width="0.235" stroke-miterlimit="10" x1="252.6" y1="225.3" x2="263.3" y2="225.4"/>
<line fill="none" stroke="#FFFFFF" stroke-width="0.235" stroke-miterlimit="10" x1="244.5" y1="225.3" x2="248.4" y2="225.3"/>
<polyline fill="none" stroke="#FFFFFF" stroke-width="0.235" stroke-miterlimit="10" points="263.9,225.7 263.9,225.9 264.4,231.2 
	244.8,233.3 244,225.9 244,225.7 "/>
<polyline fill="none" stroke="#FFFFFF" stroke-width="0.235" stroke-miterlimit="10" points="252.6,225.3 253,228.9 249.9,229.2 
	248.4,225.3 "/>
<path fill="none" stroke="#FFFFFF" stroke-width="0.235" stroke-miterlimit="10" d="M263.9,225.9c0-0.3-0.2-0.5-0.5-0.5l0,0
	c0,0-0.1,0-0.1,0l0,0"/>
<path fill="none" stroke="#FFFFFF" stroke-width="0.235" stroke-miterlimit="10" d="M244,225.9c0-0.3,0.2-0.6,0.5-0.6"/>
<path fill="#595A5C" d="M264.6,232.5c0.2,2.1-1.3,4-3.4,4.2c-2.1,0.2-4-1.3-4.2-3.4c-0.2-2.1,1.3-4,3.4-4.2
	C262.5,228.9,264.3,230.4,264.6,232.5"/>
<path fill="#D7DE27" d="M262.7,232.7c0.1,1.1-0.7,2.1-1.8,2.2c-1.1,0.1-2.1-0.7-2.2-1.8c-0.1-1.1,0.7-2.1,1.8-2.2
	C261.6,230.8,262.6,231.6,262.7,232.7"/>
<polygon fill="#595A5C" points="259.4,223 258.1,223.2 258.3,225.4 259.6,225.4 "/>
<path fill="#D7DE27" d="M262.5,232.7c0.1,1-0.6,1.8-1.6,1.9c-1,0.1-1.8-0.6-1.9-1.6c-0.1-1,0.6-1.8,1.6-1.9
	C261.5,231.1,262.4,231.8,262.5,232.7"/>
<path fill="#595A5C" d="M261.2,232.9c0,0.2-0.1,0.4-0.4,0.4c-0.2,0-0.4-0.1-0.4-0.4c0-0.2,0.1-0.4,0.4-0.4
	C260.9,232.5,261.1,232.6,261.2,232.9"/>
<line fill="none" stroke="#595A5C" stroke-width="0.2" stroke-miterlimit="10" x1="260.8" y1="233" x2="260.6" y2="231.2"/>
<line fill="none" stroke="#595A5C" stroke-width="0.2" stroke-miterlimit="10" x1="260.8" y1="232.9" x2="259" y2="232.5"/>
<line fill="none" stroke="#595A5C" stroke-width="0.2" stroke-miterlimit="10" x1="260.8" y1="232.9" x2="259.9" y2="234.5"/>
<line fill="none" stroke="#595A5C" stroke-width="0.2" stroke-miterlimit="10" x1="260.8" y1="232.9" x2="262" y2="234.3"/>
<line fill="none" stroke="#595A5C" stroke-width="0.2" stroke-miterlimit="10" x1="260.8" y1="232.9" x2="262.4" y2="232.2"/>
<g>
	<defs>
		<rect id="SVGID_31_" x="248.5" y="220.8" width="4.4" height="8.2"/>
	</defs>
	<clipPath id="SVGID_32_">
		<use xlink:href="#SVGID_31_"  overflow="visible"/>
	</clipPath>
	<g clip-path="url(#SVGID_32_)">
		<defs>
			<rect id="SVGID_33_" x="248.5" y="220.8" width="4.4" height="8.2"/>
		</defs>
		<clipPath id="SVGID_34_">
			<use xlink:href="#SVGID_33_"  overflow="visible"/>
		</clipPath>
		<path clip-path="url(#SVGID_34_)" fill="#4E647D" d="M252,227.5c0.2,0,0.4-0.3,0.4-0.6c0-0.1-0.1-0.3-0.1-0.4
			c0.1,0,0.1,0.1,0.1,0.2l0.5,1.9c0.1,0.2-0.1,0.4-0.3,0.5c0,0-0.1,0-0.1,0c-0.2,0-0.4-0.1-0.4-0.2l-0.4-1.3L252,227.5z"/>
		<path clip-path="url(#SVGID_34_)" fill="#4E647D" d="M251.5,226.9c-0.1-0.2,0.1-0.4,0.3-0.5c0,0,0.1,0,0.1,0c0.1,0,0.2,0,0.3,0.1
			c0.1,0.1,0.1,0.2,0.1,0.4c0,0.3-0.1,0.6-0.4,0.6l-0.3,0L251.5,226.9z"/>
		<path clip-path="url(#SVGID_34_)" fill="#84381C" d="M251.8,224.3c0,0,0,0.1,0,0.1c0,0.1,0,0.3-0.2,0.3l-1,0.4l0-0.7l0.8-0.3
			C251.5,224,251.7,224.1,251.8,224.3"/>
		<path clip-path="url(#SVGID_34_)" fill="#4E647D" d="M251.8,226.5c-0.2,0.1-0.4,0.3-0.3,0.5l0.2,0.6l-1.5,0.2c0,0,0,0-0.1,0
			c0.5-0.1,0.7-0.5,0.6-1l0-0.2L251.8,226.5c0.2-0.1,0.3,0,0.4,0.1C252.1,226.5,252,226.4,251.8,226.5
			C251.9,226.5,251.9,226.5,251.8,226.5"/>
		<path clip-path="url(#SVGID_34_)" fill="#4E647D" d="M250.7,226.5l0,0.2c0,0.5-0.1,0.9-0.6,1c0,0,0,0,0,0c-0.2,0-0.4-0.2-0.4-0.5
			c0-0.2,0-0.3,0.1-0.4c0.1-0.1,0.2-0.2,0.3-0.2L250.7,226.5z"/>
		<path clip-path="url(#SVGID_34_)" fill="#84381C" d="M250.6,224.4l0,0.7l-0.3,0.1c0.1-0.1,0.2-0.2,0.1-0.4l-0.2-0.4l0,0
			L250.6,224.4z"/>
		<path clip-path="url(#SVGID_34_)" fill="#84381C" d="M250.3,225.3L250.3,225.3C250.3,225.3,250.3,225.3,250.3,225.3
			C250.2,225.3,250.2,225.3,250.3,225.3c-0.1,0-0.2,0-0.2,0c0,0,0,0,0,0c-0.1,0-0.1-0.1-0.2-0.1c0,0,0,0,0,0l0-0.1l-0.6-1.3
			c-0.1-0.1,0-0.3,0.2-0.4c0,0,0.1,0,0.1,0c0.1,0,0.3,0,0.3,0.2l0.4,0.9l0,0.1l0.2,0.4C250.6,225,250.5,225.2,250.3,225.3
			L250.3,225.3L250.3,225.3z"/>
		<path clip-path="url(#SVGID_34_)" fill="#C2B59B" d="M249.3,220.9c0.5,0,0.9,0.4,1,1c0.1,0.6-0.3,1.1-0.8,1.2
			c-0.5,0.1-0.9-0.4-1-1C248.4,221.4,248.8,220.9,249.3,220.9"/>
		<path clip-path="url(#SVGID_34_)" fill="#84381C" d="M250.4,225.3C250.3,225.3,250.3,225.3,250.4,225.3
			C250.3,225.3,250.3,225.3,250.4,225.3L250.4,225.3z"/>
		<path clip-path="url(#SVGID_34_)" fill="#84381C" d="M250.2,225.3C250.2,225.3,250.2,225.3,250.2,225.3c0,0-0.1,0-0.1,0
			C250.1,225.3,250.1,225.3,250.2,225.3"/>
		<path clip-path="url(#SVGID_34_)" fill="#84381C" d="M249.9,225.2c0,0.1,0.1,0.1,0.2,0.1C250,225.3,249.9,225.3,249.9,225.2"/>
		<path clip-path="url(#SVGID_34_)" fill="#84381C" d="M249.9,225.1L249.9,225.1C249.9,225.2,249.9,225.1,249.9,225.1
			C249.9,225.1,249.9,225.1,249.9,225.1"/>
		<path clip-path="url(#SVGID_34_)" fill="#84381C" d="M248.9,224.7c-0.1-0.8,0.2-1.5,0.6-1.5c0.4,0,0.7,0.5,0.8,1.3l-0.4-0.9
			c-0.1-0.1-0.2-0.2-0.3-0.2c0,0-0.1,0-0.1,0c-0.2,0.1-0.3,0.3-0.2,0.4l0.6,1.3c0,0,0,0,0,0c0,0,0,0,0,0c0,0,0,0,0,0
			c0,0.1,0.1,0.1,0.2,0.1c0,0,0,0,0,0c0.1,0,0.1,0,0.2,0c0,0,0,0,0,0l0,0c-0.1,0.5-0.3,0.8-0.6,0.8
			C249.3,226.1,249,225.5,248.9,224.7"/>
		<path clip-path="url(#SVGID_34_)" fill="#4E647D" d="M249.5,223.2c-0.4,0-0.7,0.7-0.6,1.5c0.1,0.8,0.4,1.4,0.8,1.4
			c0.3,0,0.5-0.3,0.6-0.8c0,0,0,0,0,0c0,0,0,0,0,0l0,0l0.3-0.1l0.1,1.3l-0.7,0.1c-0.1,0-0.2,0.1-0.3,0.2c-0.1,0.1-0.1,0.2-0.1,0.4
			c0,0.3,0.2,0.5,0.4,0.5c0,0-0.1,0-0.1,0c-0.3,0-0.5-0.1-0.7-0.2c-0.2-0.1-0.3-0.4-0.3-0.6l-0.4-2.8c0-0.5,0.3-1,0.9-1c0,0,0,0,0,0
			c0.4,0,0.8,0.4,0.9,0.9l0.2,0l0,0.6l-0.3,0.1h0l0-0.1C250.2,223.7,249.9,223.2,249.5,223.2"/>
		<path clip-path="url(#SVGID_34_)" fill="#84381C" d="M250.6,223.8l0,0.1l-0.2,0c-0.1-0.5-0.4-0.9-0.9-0.9c0,0,0,0,0,0
			c-0.5,0.1-0.8,0.5-0.9,1l0-0.1c-0.1-0.5,0.3-0.9,0.9-1c0.3,0,0.5,0,0.7,0.2C250.4,223.3,250.6,223.5,250.6,223.8"/>
	</g>
</g>
<path fill="none" stroke="#FFFFFF" stroke-width="0.1" stroke-miterlimit="10" d="M249.9,225.2L249.9,225.2l-0.6-1.3
	c-0.1-0.1,0-0.3,0.2-0.4c0,0,0.1,0,0.1,0c0.1,0,0.3,0,0.3,0.2l0.4,0.9l0,0.1"/>
<path fill="none" stroke="#FFFFFF" stroke-width="0.1" stroke-miterlimit="10" d="M250,225.3c-0.1,0-0.1-0.1-0.2-0.1"/>
<path fill="none" stroke="#FFFFFF" stroke-width="0.1" stroke-miterlimit="10" d="M250.3,225.3C250.2,225.3,250.2,225.3,250.3,225.3
	c-0.1,0-0.1,0-0.2,0"/>
<path fill="none" stroke="#FFFFFF" stroke-width="0.1" stroke-miterlimit="10" d="M250.3,225.3c-0.1,0-0.1,0-0.2,0c0,0,0,0,0,0
	c-0.1,0-0.1-0.1-0.2-0.1c0,0,0,0,0,0c0,0,0,0,0,0c0,0,0,0,0,0c0,0,0,0,0,0"/>
<path fill="none" stroke="#FFFFFF" stroke-width="0.1" stroke-miterlimit="10" d="M250.3,224.6l0.3-0.1l0.8-0.3
	c0.1-0.1,0.3,0,0.4,0.2c0,0,0,0.1,0,0.1c0,0.1,0,0.3-0.2,0.3l-1,0.4l-0.3,0.1"/>
<path fill="none" stroke="#FFFFFF" stroke-width="0.1" stroke-miterlimit="10" d="M250.3,225.3C250.3,225.3,250.3,225.3,250.3,225.3
	c-0.1,0.5-0.3,0.8-0.6,0.8c-0.4,0-0.7-0.6-0.8-1.4c-0.1-0.8,0.2-1.5,0.6-1.5c0.4,0,0.7,0.5,0.8,1.3c0,0,0,0,0,0"/>
<path fill="none" stroke="#FFFFFF" stroke-width="0.1" stroke-miterlimit="10" d="M248.6,224.1c0-0.5,0.3-1,0.9-1"/>
<path fill="none" stroke="#FFFFFF" stroke-width="0.1" stroke-miterlimit="10" d="M250.4,223.9c-0.1-0.5-0.4-0.9-0.9-0.9
	c0,0,0,0,0,0"/>
<line fill="none" stroke="#FFFFFF" stroke-width="0.1" stroke-miterlimit="10" x1="250.4" y1="223.9" x2="250.6" y2="223.9"/>
<path fill="none" stroke="#FFFFFF" stroke-width="1.203" stroke-miterlimit="10" d="M241.8,228.8c1-1.4,2.5-2.3,4.3-2.5
	c3.4-0.3,6.4,2.1,6.8,5.5c0,0.3,0,0.6,0,0.9"/>
<path fill="#595A5C" d="M252.4,231.9c0.3,3.1-2,5.9-5.1,6.2c-3.1,0.3-5.9-2-6.2-5.1c-0.3-3.1,2-5.9,5.1-6.2
	C249.3,226.5,252.1,228.7,252.4,231.9"/>
<path fill="#D7DE27" d="M249.8,232.1c0.2,1.7-1.1,3.2-2.7,3.4s-3.2-1.1-3.4-2.7c-0.2-1.7,1.1-3.2,2.7-3.4S249.7,230.4,249.8,232.1"
	/>
<path fill="none" stroke="#749E3F" stroke-width="0.802" stroke-miterlimit="10" d="M241.8,228.8c1-1.4,2.5-2.3,4.3-2.5
	c3.4-0.3,6.4,2.1,6.8,5.5c0,0.3,0,0.6,0,0.9"/>
<path fill="#595A5C" d="M247.5,232.3c0,0.4-0.2,0.7-0.6,0.7c-0.4,0-0.7-0.2-0.7-0.6c0-0.4,0.2-0.7,0.6-0.7
	C247.1,231.7,247.5,232,247.5,232.3"/>
<line fill="none" stroke="#595A5C" stroke-width="0.2" stroke-miterlimit="10" x1="246.9" y1="232.5" x2="246.6" y2="229.6"/>
<line fill="none" stroke="#595A5C" stroke-width="0.2" stroke-miterlimit="10" x1="246.9" y1="232.4" x2="244" y2="231.8"/>
<line fill="none" stroke="#595A5C" stroke-width="0.2" stroke-miterlimit="10" x1="246.9" y1="232.4" x2="245.4" y2="234.9"/>
<line fill="none" stroke="#595A5C" stroke-width="0.2" stroke-miterlimit="10" x1="246.9" y1="232.4" x2="248.8" y2="234.6"/>
<line fill="none" stroke="#595A5C" stroke-width="0.2" stroke-miterlimit="10" x1="246.9" y1="232.4" x2="249.5" y2="231.2"/>
<path fill="none" stroke="#595A5C" stroke-width="0.401" stroke-miterlimit="10" d="M252.6,225c-0.1,0.9-0.4,1.6-0.6,1.5
	c-0.2,0-0.2-0.8,0-1.6c0.1-0.9,0.4-1.6,0.6-1.5C252.8,223.4,252.8,224.1,252.6,225z"/>
<line fill="none" stroke="#595A5C" stroke-width="0.401" stroke-miterlimit="10" x1="252" y1="225.7" x2="252.3" y2="225"/>
<line fill="none" stroke="#595A5C" stroke-width="0.401" stroke-miterlimit="10" x1="252.3" y1="225" x2="252.4" y2="223.5"/>
<line fill="none" stroke="#595A5C" stroke-width="0.401" stroke-miterlimit="10" x1="251.9" y1="225" x2="252.1" y2="225.1"/>
<path fill="#808184" d="M43.4,198.4c0,5.1-4.1,9.2-9.2,9.2c-5.1,0-9.2-4.1-9.2-9.2c0-5.1,4.1-9.2,9.2-9.2
	C39.3,189.2,43.4,193.3,43.4,198.4"/>
<circle fill="none" stroke="#FFFFFF" stroke-width="0.941" stroke-miterlimit="10" cx="34.2" cy="198.4" r="9.2"/>
<rect x="25" y="198.4" fill="#808184" width="18.4" height="51.3"/>
<rect x="25" y="198.4" fill="none" stroke="#FFFFFF" stroke-width="0.941" stroke-miterlimit="10" width="18.4" height="51.3"/>
<polyline fill="#84381C" points="48,210.8 54.6,192.9 81.5,184.9 108.4,192.8 115.2,210.7 "/>
<polyline fill="none" stroke="#FFFFFF" stroke-width="0.941" stroke-miterlimit="10" points="48,210.8 54.6,192.9 81.5,184.9 
	108.4,192.8 115.2,210.7 "/>
<rect x="48" y="210.8" fill="#84381C" width="67.1" height="39"/>
<rect x="48" y="210.8" fill="none" stroke="#FFFFFF" stroke-width="0.941" stroke-miterlimit="10" width="67.1" height="39"/>
<rect x="68.7" y="227.8" fill="#84381C" width="26.1" height="22"/>
<rect x="68.7" y="227.8" fill="none" stroke="#FFFFFF" stroke-width="0.941" stroke-miterlimit="10" width="26.1" height="22"/>
<line fill="none" stroke="#FFFFFF" stroke-width="0.941" stroke-miterlimit="10" x1="81.6" y1="227.8" x2="81.6" y2="249.9"/>
<line fill="none" stroke="#FFFFFF" stroke-width="1.882" stroke-miterlimit="10" x1="69.2" y1="249.9" x2="81.4" y2="227.8"/>
<line fill="none" stroke="#FFFFFF" stroke-width="1.882" stroke-miterlimit="10" x1="81.4" y1="249.7" x2="69.2" y2="227.8"/>
<line fill="none" stroke="#FFFFFF" stroke-width="1.882" stroke-miterlimit="10" x1="81.6" y1="249.7" x2="94.3" y2="227.8"/>
<line fill="none" stroke="#FFFFFF" stroke-width="1.882" stroke-miterlimit="10" x1="94.4" y1="249.9" x2="81.6" y2="227.8"/>
<polyline fill="none" stroke="#FFFFFF" stroke-width="0.47" stroke-miterlimit="10" points="489.6,221.9 491.6,216.5 499.6,214.2 
	507.6,216.5 509.6,221.8 "/>
<rect x="489.6" y="221.9" fill="none" stroke="#FFFFFF" stroke-width="0.47" stroke-miterlimit="10" width="20" height="11.6"/>
<path fill="#808184" d="M487.1,218.6c0,1.4-1.2,2.6-2.6,2.6c-1.4,0-2.6-1.2-2.6-2.6c0-1.4,1.2-2.6,2.6-2.6
	C485.9,216,487.1,217.2,487.1,218.6"/>
<rect x="481.9" y="219" fill="none" stroke="#FFFFFF" stroke-width="0.47" stroke-miterlimit="10" width="5.2" height="14.5"/>
<rect x="495.1" y="226" fill="#84381C" width="8.9" height="7.5"/>
<circle fill="none" stroke="#FFFFFF" stroke-width="0.47" stroke-miterlimit="10" cx="484.5" cy="218.6" r="2.6"/>
<rect x="481.9" y="219" fill="#808184" width="5.2" height="14.5"/>
<polyline fill="#84381C" points="489.6,221.9 491.6,216.5 499.6,214.2 507.6,216.5 509.6,221.8 "/>
<rect x="489.6" y="221.9" fill="#84381C" width="20" height="11.6"/>
<rect x="495.1" y="226" fill="none" stroke="#FFFFFF" stroke-width="0.321" stroke-miterlimit="10" width="8.9" height="7.5"/>
<line fill="none" stroke="#FFFFFF" stroke-width="0.321" stroke-miterlimit="10" x1="499.5" y1="226" x2="499.5" y2="233.5"/>
<line fill="none" stroke="#FFFFFF" stroke-width="0.642" stroke-miterlimit="10" x1="495.3" y1="233.5" x2="499.5" y2="226"/>
<line fill="none" stroke="#FFFFFF" stroke-width="0.642" stroke-miterlimit="10" x1="499.5" y1="233.4" x2="495.3" y2="226"/>
<line fill="none" stroke="#FFFFFF" stroke-width="0.642" stroke-miterlimit="10" x1="499.5" y1="233.4" x2="503.9" y2="226"/>
<line fill="none" stroke="#FFFFFF" stroke-width="0.642" stroke-miterlimit="10" x1="503.9" y1="233.5" x2="499.5" y2="226"/>
<g>
	<defs>
		<rect id="SVGID_35_" x="138.6" y="210.4" width="14.1" height="47.8"/>
	</defs>
	<clipPath id="SVGID_36_">
		<use xlink:href="#SVGID_35_"  overflow="visible"/>
	</clipPath>
	<path clip-path="url(#SVGID_36_)" fill="#84381C" d="M150.9,222.7c0-2.8-1.5-3.1-3.8-3.2l0.7,0c0.8,0,4.1,0.4,4.2,1.7l0.6,13v0.2
		c0,1.2-0.6,2.2-1.3,2.2c-0.5,0-1-0.5-1.3-1.2L150.9,222.7z"/>
	<path clip-path="url(#SVGID_36_)" fill="#C2B59B" d="M145.7,219.5c-0.2,0-0.4,0-0.6,0c-0.3,0-0.5,0-0.8,0c-2-0.4-3.4-2.3-3.4-4.5
		c0-2.6,1.9-4.6,4.3-4.6c2.4,0,4.3,2.1,4.3,4.6c0,2.2-1.4,4-3.4,4.5h0H146L145.7,219.5z"/>
	<path clip-path="url(#SVGID_36_)" fill="#A02322" d="M146.3,219.5c0.3,0,0.6,0,0.8,0l-1.1,0C146.1,219.5,146.2,219.5,146.3,219.5
		L146.3,219.5z"/>
	<path clip-path="url(#SVGID_36_)" fill="#C2B59B" d="M144.8,219.6l1.3,0c-0.2,0.1-0.5,0.1-0.8,0.1
		C145.1,219.6,145,219.6,144.8,219.6"/>
	<path clip-path="url(#SVGID_36_)" fill="#C2B59B" d="M146.3,219.5c-0.1,0-0.1,0-0.2,0l-1.3,0c-0.1,0-0.2,0-0.3,0c0.2,0,0.4,0,0.7,0
		c0.2,0,0.4,0,0.6,0l0.3,0H146.3z"/>
	<path clip-path="url(#SVGID_36_)" fill="#C2B59B" d="M145.7,219.5c-0.2,0-0.4,0-0.6,0C145.3,219.5,145.5,219.5,145.7,219.5"/>
	<path clip-path="url(#SVGID_36_)" fill="#4E647D" d="M145.3,242v14.4c0,1-1,1.8-2.3,1.8c-1.2,0-2.3-0.8-2.3-1.8l0.7-20.3l8.5,0
		l1,20.3c0,1-1,1.8-2.3,1.8c-1.3,0-2.3-0.8-2.3-1.8V242c-0.1,0-0.3,0-0.5,0C145.7,242,145.5,242,145.3,242"/>
	<path clip-path="url(#SVGID_36_)" fill="#84381C" d="M147.1,219.5c2.2,0,3.8,0.3,3.8,3.2l-0.9,12.7L150,236l-8.5,0v0l0-1.3
		l-0.3-11.7c0-2.1,0.7-2.9,2-3.3c0.2,0,0.4-0.1,0.6-0.1h0l1,0c0.2,0,0.3,0,0.5,0c0.3,0,0.5,0,0.8-0.1L147.1,219.5z"/>
	<path clip-path="url(#SVGID_36_)" fill="#C2B59B" d="M145.2,219.5c-0.2,0-0.5,0-0.7,0c0,0-0.1,0-0.1,0
		C144.6,219.5,144.9,219.5,145.2,219.5"/>
	<path clip-path="url(#SVGID_36_)" fill="#A02322" d="M144.8,219.6l-1,0c0.2,0,0.5-0.1,0.7-0.1C144.6,219.6,144.7,219.6,144.8,219.6
		"/>
	<path clip-path="url(#SVGID_36_)" fill="#A02322" d="M143.7,219.6c-0.2,0-0.4,0.1-0.6,0.1c0.1,0,0.2-0.1,0.3-0.1h0H143.7
		L143.7,219.6z"/>
	<path clip-path="url(#SVGID_36_)" fill="#A02322" d="M143.5,219.6c0.3-0.1,0.6-0.1,0.9-0.1c0,0,0.1,0,0.1,0c-0.3,0-0.5,0-0.7,0.1h0
		h-0.1H143.5z"/>
	<path clip-path="url(#SVGID_36_)" fill="#84381C" d="M141.5,234.7c-0.1,1.1-0.8,2-1.5,1.9c-0.8,0-1.3-1-1.3-2.2v-0.2l0.7-12.9
		c0.1-1.2,3.2-1.7,4.2-1.7c-0.1,0-0.2,0.1-0.3,0.1c-1.3,0.3-2,1.2-2,3.3L141.5,234.7z"/>
</g>
<rect x="138.6" y="210.4" fill="none" width="14.1" height="47.8"/>
<path fill="none" stroke="#FFFFFF" stroke-width="0.169" stroke-miterlimit="10" d="M145.3,242v14.4c0,1-1,1.8-2.3,1.8
	c-1.2,0-2.3-0.8-2.3-1.8l0.7-20.3v0"/>
<path fill="none" stroke="#FFFFFF" stroke-width="0.169" stroke-miterlimit="10" d="M150,236l1,20.3c0,1-1,1.8-2.3,1.8
	c-1.3,0-2.3-0.8-2.3-1.8V242"/>
<path fill="none" stroke="#FFFFFF" stroke-width="9.400000e-02" stroke-miterlimit="10" d="M142,223.6l-0.5,10.8c0,0.1,0,0.2,0,0.3
	c-0.1,1.1-0.8,2-1.5,1.9c-0.8,0-1.3-1-1.3-2.2v-0.2l0.7-12.9c0.1-1.2,3.2-1.7,4.2-1.7h0h0.1"/>
<path fill="none" stroke="#FFFFFF" stroke-width="9.400000e-02" stroke-miterlimit="10" d="M149.4,223.5l0.4,10.9
	c0,0.4,0.1,0.7,0.2,1c0.2,0.8,0.8,1.2,1.3,1.2c0.8,0,1.3-1,1.3-2.2v-0.2l-0.6-13c0-1.3-3.4-1.7-4.2-1.7"/>
<path fill="none" stroke="#FFFFFF" stroke-width="0.169" stroke-miterlimit="10" d="M146.7,242L146.7,242c-0.2,0-0.4,0-0.5,0
	c-0.2,0-0.4,0-0.6,0"/>
<line fill="none" stroke="#FFFFFF" stroke-width="0.169" stroke-miterlimit="10" x1="141.7" y1="236.1" x2="150.2" y2="236"/>
<polyline fill="none" stroke="#FFFFFF" stroke-width="9.400000e-02" stroke-miterlimit="10" points="146.3,219.6 147.4,219.5 
	148.1,219.5 "/>
<polyline fill="none" stroke="#FFFFFF" stroke-width="9.400000e-02" stroke-miterlimit="10" points="143.9,219.6 144,219.6 
	144,219.6 145,219.6 "/>
<g>
</g>
<g>
</g>
<g>
</g>
<g>
</g>
<g>
</g>
<g>
</g>
</svg>
