<?xml version="1.0" encoding="utf-8"?>
<!-- Generator: Adobe Illustrator 17.1.0, SVG Export Plug-In . SVG Version: 6.00 Build 0)  -->
<!DOCTYPE svg PUBLIC "-//W3C//DTD SVG 1.1//EN" "http://www.w3.org/Graphics/SVG/1.1/DTD/svg11.dtd">
<svg version="1.1" xmlns="http://www.w3.org/2000/svg" xmlns:xlink="http://www.w3.org/1999/xlink" x="0px" y="0px"
	 viewBox="0 0 792 1224" enable-background="new 0 0 792 1224" xml:space="preserve">
<g id="Layer_5">
	<ellipse fill="#9BA439" cx="325.4" cy="339" rx="238.6" ry="102"/>
	<path fill="#487838" d="M0,323.3c44.6-26.6,119.1-44.1,203.5-44.1c136.6,0,247.3,45.7,247.3,102s-110.7,102-247.3,102
		c-84.4,0-158.9-17.4-203.5-44.1"/>
	<path fill="#487838" d="M798.2,487.6c-12.3,0.5-24.9,0.7-37.6,0.7c-178,0-322.3-48.9-322.3-109.1s144.3-109.1,322.3-109.1
		c10.6,0,21,0.2,31.3,0.5"/>
	<path fill="#749E40" d="M230.9,404.9c-0.1-1.1-0.1-2.2-0.1-3.3c0-52.2,102.1-94.5,228.1-94.5S687,349.4,687,401.6
		c0,1.4-0.1,2.9-0.2,4.3"/>
</g>
<g id="Farm_Fields">
	<g id="XMLID_14_">
		<g>
			<path fill="#749E40" d="M617.4,986.9l-5.4-25.5l1.7-0.4h178.2v263H613.7c-31-182.9-160.1-145.8-191.5-221.3v-0.7
				c-0.8-5.4-1.2-10.4-1.4-15.1h168H617.4z"/>
			<polygon fill="#487838" points="791.9,832.4 791.9,961 613.7,961 612,961.4 575,787 769.8,787 770.1,787 770.2,787 			"/>
			<polygon fill="#9BA439" points="791.9,773.8 791.9,832.4 770.2,787 770.1,787 769.8,787 763.8,774.4 765,773.8 			"/>
			<polygon fill="#749E40" points="791.9,602.5 791.9,773.8 765,773.8 763.8,774.4 681.6,602.5 			"/>
			<polygon fill="#487838" points="791.9,497.1 791.9,602.5 681.6,602.5 633.2,602.5 582.8,497.1 612.8,497.1 			"/>
			<polygon fill="#9BA439" points="791.9,458.7 791.9,497.1 612.8,497.1 562.2,391.3 727.9,391.3 			"/>
			<polygon fill="#749E40" points="791.9,391.3 791.9,458.7 727.9,391.3 			"/>
			<polygon fill="#9BA439" points="763.8,774.4 769.8,787 575,787 552.8,787 517.6,621 642,621 642,620.9 633.2,602.5 681.6,602.5 
							"/>
			<polygon fill="#749E40" points="633.2,602.5 642,620.9 642,621 517.6,621 491.3,621 491.3,619.4 465.4,497.1 491.3,497.1 
				582.8,497.1 			"/>
			<path fill="#9BA439" d="M509.8,872.3C509.8,872.3,509.8,872.3,509.8,872.3c4.6-21.3,18.7-50.1-2.6-85.3h44.9h0.7H575l37,174.4
				l5.4,25.5h-28.5h-168C418.6,916,484.1,921.6,509.8,872.3z"/>
			<path fill="#A5D9EA" d="M320.3,542.5c36.6-17.9,39.1-31,39.4-45.5c0-0.5,0-0.9,0-1.4l-0.1-0.8c-5.4-21.2-21.4-37.4-34.9-50
				c-3.3-3.1-6.3-7.5-8.4-12.6l8.7-41h61.3c-12,20.4,1.3,48.9,15.7,58.3c16.3,10.7,35.9,24.7,46.5,46.5l0.3,0.8c0,0,0,0.1,0,0.1
				c4,18,5.8,34.4-38.7,69.6c-32.3,16.5-45.9,35.3-47.8,54.3c-6,59.2,100.9,121.5,112.9,130.9c15.1,12.3,25.3,24,32,35.1
				c21.3,35.2,7.2,64,2.6,85.3c0,0,0,0,0,0c-25.7,49.2-91.3,43.7-89,114.5c0.1,4.7,0.6,9.7,1.4,15.1v0.7
				c31.4,75.5,160.5,38.4,191.5,221.3H274.6c13.7-155.2-37.1-139.4-50.9-237.3c-2.1-15.1-3.4-32.8-3.4-54.4
				c7.3-78.7,57.3-73.3,95.8-114.1c7.5-14.3,29.3-24.9,33.3-44.4c2.5-12.2-2-27.8-21.2-50c-6.6-7.3-35.3-40.6-49.5-77.9
				c-13.2-34.7-13.8-72.9,27.6-97.1C311.5,546.7,316.1,544.6,320.3,542.5z"/>
			<polygon fill="#487838" points="582.8,497.1 491.3,497.1 468.9,391.3 562.2,391.3 612.8,497.1 			"/>
			<path fill="#487838" d="M517.6,621l35.2,166h-0.7h-44.9c-6.7-11.1-16.9-22.8-32-35.1c-12-9.4-118.9-71.7-112.9-130.9h129H517.6z"
				/>
			<path fill="#9BA439" d="M491.3,619.4v1.6h-129c1.9-19.1,15.6-37.8,47.8-54.3c44.5-35.2,42.7-51.6,38.7-69.6h16.6L491.3,619.4z"/>
			<path fill="#9BA439" d="M465.4,497.1h-16.6c0,0,0-0.1,0-0.1l-0.3-0.8c-10.6-21.8-30.2-35.9-46.5-46.5
				c-14.4-9.4-27.7-37.9-15.7-58.3h82.6l22.4,105.8H465.4z"/>
			<path fill="#749E40" d="M359.5,494.9l0.1,0.8c0,0.5,0,0.9,0,1.4h-34.2h-22.9l13.7-64.8c2.1,5.1,5,9.5,8.4,12.6
				C338.1,457.5,354.1,473.7,359.5,494.9z"/>
			<path fill="#487838" d="M325.4,497.1h34.2c-0.2,14.4-2.7,27.5-39.4,45.5L325.4,497.1z"/>
			<path fill="#487838" d="M328.3,723.8c19.2,22.2,23.7,37.8,21.2,50h-98.8l27-127.5l1.1-0.4C292.9,683.2,321.7,716.5,328.3,723.8z"
				/>
			<path fill="#9BA439" d="M250.6,773.8h98.8c-4,19.5-25.8,30.1-33.3,44.4c-38.5,40.7-88.5,35.4-95.8,114.1
				c0,21.5,1.2,39.3,3.4,54.4l-2.1,0.2h-11.5H185l45.2-213H250.6z"/>
			<path fill="#487838" d="M325.4,497.1l-5.2,45.5c-4.2,2-8.8,4.2-13.9,6.3c-41.4,24.2-40.8,62.4-27.6,97.1l-1.1,0.4H98.8l16.5-34.3
				l55.3-114.9h131.9H325.4z"/>
			<path fill="#A5D9EA" d="M325,391.3l-8.7,41c-5.3-12.8-5.6-29.9,5.6-41H325z"/>
			<path fill="#9BA439" d="M183.6,391.3h138.3c-11.1,11.1-10.9,28.2-5.6,41l-13.7,64.8H170.6h-50.9L183.6,391.3z"/>
			<polygon fill="#749E40" points="277.7,646.3 250.6,773.8 230.2,773.8 37.5,773.8 0.4,773.8 0.4,612 115.3,612 98.8,646.3 			"/>
			<path fill="#487838" d="M223.7,986.7c13.8,97.9,64.5,82.1,50.9,237.3H157.8l52.3-237.1h11.5L223.7,986.7z"/>
			<polygon fill="#487838" points="230.2,773.8 185,986.9 0.4,986.9 0.4,851 37.5,773.8 			"/>
			<polygon fill="#9BA439" points="210.1,986.9 157.8,1224 0.4,1224 0.4,986.9 185,986.9 			"/>
			<polygon fill="#749E40" points="183.6,391.3 119.8,497.1 0.4,497.1 0.4,453.1 59.2,391.3 			"/>
			<polygon fill="#9BA439" points="170.6,497.1 115.3,612 0.4,612 0.4,497.1 119.8,497.1 			"/>
			<polygon fill="#487838" points="59.2,391.3 0.4,453.1 0.4,391.3 			"/>
			<polygon fill="#9BA439" points="37.5,773.8 0.4,851 0.4,773.8 			"/>
		</g>
		<g>
		</g>
	</g>
	<g>
	</g>
	<g>
	</g>
	<g>
	</g>
	<g>
	</g>
	<g>
	</g>
	<g>
	</g>
</g>
</svg>
