<?xml version="1.0" encoding="utf-8"?>
<!-- Generator: Adobe Illustrator 17.1.0, SVG Export Plug-In . SVG Version: 6.00 Build 0)  -->
<!DOCTYPE svg PUBLIC "-//W3C//DTD SVG 1.1//EN" "http://www.w3.org/Graphics/SVG/1.1/DTD/svg11.dtd">
<svg version="1.1" xmlns="http://www.w3.org/2000/svg" xmlns:xlink="http://www.w3.org/1999/xlink" x="0px" y="0px"
	 viewBox="0 0 792 1224" enable-background="new 0 0 792 1224" xml:space="preserve">
<g id="Hills">
	<g id="XMLID_3_">
		<g>
			<path fill="#A5D9EA" d="M324.4,195c0.8-12.3,11.5-22,24.6-22c2.5,0.1,4.9,0.3,7.3,0.4c-13.7,0-24.7,10.3-24.7,23
				c-4.8,27.2-15.8,45.2-33.6,45.2c-7.1,0-12.9-1.5-12.9-3.3C307.1,238.3,318.4,221.9,324.4,195L324.4,195z"/>
			<path fill="#9BA439" d="M356.4,173.5c154.7,9.9,270.7,50.8,270.7,99.8c0,56.4-153.6,102-343.2,102c-189.5,0-343.1-45.7-343.1-102
				c0-56.4,153.6-102,343.1-102c22.3,0,44,0.6,65.1,1.8c-13.1,0-23.9,9.7-24.6,22h-0.1c-5.9,26.9-17.2,43.3-39.2,43.3
				c0,1.8,5.8,3.3,12.9,3.3c17.8,0,28.9-18,33.6-45.2C331.6,183.8,342.7,173.5,356.4,173.5L356.4,173.5z"/>
		</g>
		<g>
		</g>
	</g>
	<g id="XMLID_2_">
		<g>
			<path fill="#487838" d="M339.1,308.4c-34.6-1.1-61.9-14.2-61.9-30.2c0-22.9-9.9-43.2-23-47.5c107,17.8,178.7,50.4,178.7,87.8
				c0,56.4-163.3,102-364.8,102c-124.5,0-234.4-17.4-300.2-44.1v-116c65.8-26.6,175.8-44.1,300.2-44.1c62.1,0,120.5,4.3,171.7,12
				c0,0,0,0,0,0c12.2,3.7,21.7,28.4,21.7,56.2c0,19,24.7,34.4,55.8,35.4l-0.1,1.6C365.3,324.6,346.6,314.7,339.1,308.4z"/>
			<path fill="#A5D9EA" d="M317.3,320c-31.1-1-55.8-16.5-55.8-35.4c0-27.8-9.4-52.4-21.7-56.2c3.1,0.5,6.2,0.9,9.2,1.4
				c1.7,0.3,3.4,0.6,5.2,0.8c13.1,4.3,23,24.7,23,47.5c0,16,27.3,29.1,61.9,30.2c7.5,6.3,26.2,16.2-21.9,13.1L317.3,320z"/>
		</g>
		<g>
		</g>
	</g>
	<path fill="#487838" d="M889.9,430.5c-15.9,0.5-32.1,0.7-48.6,0.7c-230.2,0-416.7-48.9-416.7-109.1s186.6-109.1,416.7-109.1
		c13.7,0,27.2,0.2,40.5,0.5"/>
	<g id="XMLID_1_">
		<g>
			<path fill="#749E40" d="M397.6,348.5l44.6-0.5h0c31-29.1,1.8-51.1-20-59.6c0,0,0,0,0,0c40.6-7.8,86.3-12.2,134.7-12.2
				c167.7,0,303.6,52.6,303.6,117.5c0,1.8-0.1,3.5-0.3,5.3l-606.8-1.2c-0.1-1.4-0.2-2.8-0.2-4.1c0-39.8,51.2-75,129.5-96.3h0
				c15,0,68.5,27.7,14.8,49.9L397.6,348.5z"/>
			<path fill="#A5D9EA" d="M442.2,348L442.2,348l-44.6,0.5l0-1.1c53.6-22.3,0.2-49.9-14.8-49.9c21.8,0,39.4-4,39.4-9.1
				C444,296.9,473.3,318.8,442.2,348z"/>
		</g>
		<g>
		</g>
	</g>
</g>
<g id="Farm_Fields">
	<g id="XMLID_14_">
		<g>
			<path fill="#A5D9EA" d="M320.3,542.5c36.6-17.9,39.1-31,39.4-45.5c0-0.5,0-0.9,0-1.4l-0.1-0.8c-5.4-21.2-21.4-37.4-34.9-50
				c-4.7-4.4-8.5-13.9-9.9-26.1l12.8-60.2c1.1-1.8,2.2-3.6,3.4-5.4c14.1,4.7,47.8,7.1,65.3-3.7l0,0c-30.5,44.9-7.9,91,5.8,100.1
				c16.3,10.7,35.9,24.7,46.5,46.5l0.3,0.8c0,0,0,0.1,0,0.1c4,18,5.8,34.4-38.7,69.6c-32.3,16.5-45.9,35.3-47.8,54.3
				c-6,59.2,100.9,121.5,112.9,130.9c15.1,12.3,25.3,24,32,35.1c21.3,35.2,7.2,64,2.6,85.3c0,0,0,0,0,0
				c-25.7,49.2-91.3,43.7-89,114.5c0.1,4.7,0.6,9.7,1.4,15.1v0.7c31.4,75.5,160.5,38.4,191.5,221.3H274.6
				c13.7-155.2-37.1-139.4-50.9-237.3c-2.1-15.1-3.4-32.8-3.4-54.4c7.3-78.7,57.3-73.3,95.8-114.1c7.5-14.3,29.3-24.9,33.3-44.4
				c2.5-12.2-2-27.8-21.2-50c-6.6-7.3-35.3-40.6-49.5-77.9c-13.2-34.7-13.8-72.9,27.6-97.1C311.5,546.7,316.1,544.6,320.3,542.5z"/>
			<path fill="#9BA439" d="M465.4,497.1h-16.6c0,0,0-0.1,0-0.1l-0.3-0.8c-10.6-21.8-30.2-35.9-46.5-46.5
				c-13.8-9-36.3-55.2-5.8-100.1c0.2-0.3,0.4-0.7,0.7-1c22.4-0.9,44.9-1.5,67.4-1.7l31.9,150.2H465.4z"/>
			<path fill="#749E40" d="M617.4,986.9l-5.4-25.5l1.7-0.4h178.2v263H613.7c-31-182.9-160.1-145.8-191.5-221.3v-0.7
				c-0.8-5.4-1.2-10.4-1.4-15.1h168H617.4z"/>
			<polygon fill="#487838" points="791.9,832.4 791.9,961 613.7,961 612,961.4 575,787 769.8,787 770.1,787 770.2,787 			"/>
			<polygon fill="#9BA439" points="791.9,773.8 791.9,832.4 770.2,787 770.1,787 769.8,787 763.8,774.4 765,773.8 			"/>
			<polygon fill="#749E40" points="791.9,602.5 791.9,773.8 765,773.8 763.8,774.4 681.6,602.5 			"/>
			<polygon fill="#487838" points="791.9,497.1 791.9,602.5 681.6,602.5 633.2,602.5 582.8,497.1 612.8,497.1 			"/>
			<path fill="#9BA439" d="M791.9,458.7v38.4H612.8l-71.1-148.6l0-0.7c57.1,2.1,112.1,7.3,161.1,17.2L791.9,458.7z"/>
			<path fill="#749E40" d="M791.9,391.3v67.4L702.8,365C735.6,371.6,765.7,380.2,791.9,391.3z"/>
			<polygon fill="#9BA439" points="763.8,774.4 769.8,787 575,787 552.8,787 517.6,621 642,621 642,620.9 633.2,602.5 681.6,602.5 
							"/>
			<polygon fill="#749E40" points="633.2,602.5 642,620.9 642,621 517.6,621 491.3,621 491.3,619.4 465.4,497.1 496.1,497.1 
				582.8,497.1 			"/>
			<path fill="#9BA439" d="M509.8,872.3c4.6-21.3,18.7-50.1-2.6-85.3h44.9h0.7H575l37,174.4l5.4,25.5h-28.5h-168
				C418.6,916,484.1,921.6,509.8,872.3C509.8,872.3,509.8,872.3,509.8,872.3z"/>
			<path fill="#487838" d="M582.8,497.1h-86.7l-31.9-150.2c26-0.2,52,0,77.5,1l0,0.7l71.1,148.6H582.8z"/>
			<path fill="#487838" d="M517.6,621l35.2,166h-0.7h-44.9c-6.7-11.1-16.9-22.8-32-35.1c-12-9.4-118.9-71.7-112.9-130.9h129H517.6z"
				/>
			<path fill="#9BA439" d="M491.3,619.4v1.6h-129c1.9-19.1,15.6-37.8,47.8-54.3c44.5-35.2,42.7-51.6,38.7-69.6h16.6L491.3,619.4z"/>
			<path fill="#749E40" d="M359.5,494.9l0.1,0.8c0,0.5,0,0.9,0,1.4h-34.2h-27.2l16.6-78.2c1.4,12.1,5.2,21.7,9.9,26.1
				C338.1,457.5,354.1,473.7,359.5,494.9z"/>
			<path fill="#487838" d="M325.4,497.1h34.2c-0.2,14.4-2.7,27.5-39.4,45.5L325.4,497.1z"/>
			<path fill="#487838" d="M328.3,723.8c19.2,22.2,23.7,37.8,21.2,50h-98.8l27-127.5l1.1-0.4C292.9,683.2,321.7,716.5,328.3,723.8z"
				/>
			<path fill="#9BA439" d="M250.6,773.8h98.8c-4,19.5-25.8,30.1-33.3,44.4c-38.5,40.7-88.5,35.4-95.8,114.1
				c0,21.5,1.2,39.3,3.4,54.4l-2.1,0.2h-11.5H185l45.2-213H250.6z"/>
			<path fill="#9BA439" d="M328.9,352.2l-1.4,6.5c-11.8,20.6-14.7,43-12.8,60.2l-16.6,78.2H170.6h-50.9l79.4-131.6l-0.2-1.7
				C239.1,359.3,283.1,355.3,328.9,352.2z"/>
			<path fill="#A5D9EA" d="M327.5,358.7l-12.8,60.2C312.8,401.7,315.7,379.3,327.5,358.7z"/>
			<path fill="#487838" d="M325.4,497.1l-5.2,45.5c-4.2,2-8.8,4.2-13.9,6.3c-41.4,24.2-40.8,62.4-27.6,97.1l-1.1,0.4H98.8l16.5-34.3
				l55.3-114.9h127.5H325.4z"/>
			<polygon fill="#749E40" points="277.7,646.3 250.6,773.8 230.2,773.8 37.5,773.8 0.4,773.8 0.4,612 115.3,612 98.8,646.3 			"/>
			<path fill="#487838" d="M223.7,986.7c13.8,97.9,64.5,82.1,50.9,237.3H157.8l52.3-237.1h11.5L223.7,986.7z"/>
			<polygon fill="#487838" points="230.2,773.8 185,986.9 0.4,986.9 0.4,851 37.5,773.8 			"/>
			<polygon fill="#9BA439" points="210.1,986.9 157.8,1224 0.4,1224 0.4,986.9 185,986.9 			"/>
			<path fill="#749E40" d="M0.4,453.1v-61.8c0,0,83.1-15,198.6-27.6l0.2,1.7l-79.4,131.6H0.4V453.1z"/>
			<polygon fill="#9BA439" points="170.6,497.1 115.3,612 0.4,612 0.4,497.1 119.8,497.1 			"/>
			<polygon fill="#9BA439" points="37.5,773.8 0.4,851 0.4,773.8 			"/>
		</g>
		<g>
		</g>
	</g>
	<g>
	</g>
	<g>
	</g>
	<g>
	</g>
	<g>
	</g>
	<g>
	</g>
	<g>
	</g>
</g>
</svg>
